<svg xmlns="http://www.w3.org/2000/svg" width="80" height="80" viewBox="0 0 80 80">
    <path fill="#2EB0FF" fill-rule="evenodd" d="M50.297 43.014c.604.78 1.154 1.534 1.639 2.25 2.29 3.39 2.827 5.408 1.737 6.536l-.023.025-.003.003-.022.02a1.884 1.884 0 0 1-1.04.516L12.26 69.244l-.003.001a1.146 1.146 0 0 1-1.5-1.496l16.912-40.252a1.88 1.88 0 0 1 .536-1.058l.002-.002a.088.088 0 0 0 .003-.003l.025-.022c1.13-1.088 3.153-.552 6.549 1.734.634.427 1.298.906 1.983 1.428 3.63-4.57 5.47-10.493 5.47-17.648a1.145 1.145 0 0 1 2.29 0c0 4.644-.75 8.877-2.23 12.582a25.826 25.826 0 0 1-3.74 6.488 80.234 80.234 0 0 1 5.496 5.018 81.051 81.051 0 0 1 4.765 5.17c2.523-1.213 5.047-2.09 7.531-2.615a1.144 1.144 0 1 1 .474 2.238c-2.146.453-4.33 1.193-6.525 2.208zM19.755 61.186c.325-2.027-.003-4.301-.952-6.675l-4.85 11.543 4.775-1.999c.256-.402.788-1.38 1.027-2.869zm7.05-3.87c.463-2.63.196-7.096-3.367-13.838l-3.434 8.172c2.594 4.97 2.418 8.755 1.747 11.14l3.019-1.264c.348-.314 1.574-1.58 2.036-4.21zm4.088 1.648c.641-.871 2.386-4.028 3.2-8.34.767-4.054.855-10.13-3.064-16.066-.4-.535-.772-1.056-1.111-1.558a25.22 25.22 0 0 1-1.236-2.002l-1.894 4.509c1.303 1.336 3.007 3.764 3.679 5.324a1.143 1.143 0 0 1-1.053 1.596c-.444 0-.866-.26-1.053-.693-.453-1.051-1.57-2.72-2.552-3.898l-1.24 2.95c3.868 6.728 5.365 12.504 4.448 17.176-.15.766-.358 1.442-.594 2.035l2.47-1.033zm8.83-3.696c.534-.468 3.015-2.928 3.18-8.327a81.263 81.263 0 0 1-5.102-4.69 87.556 87.556 0 0 1-1.674-1.717c.984 3.998.75 7.7.218 10.514a28.786 28.786 0 0 1-2.063 6.497l5.44-2.277zm3.949-1.653l5.405-2.262a25.24 25.24 0 0 1-2.006-1.233 42.33 42.33 0 0 1-2.003-1.442c-.241 2.039-.783 3.67-1.396 4.937zm4.03-5.84c2.409 1.703 3.639 2.162 4.172 2.283-.121-.532-.581-1.76-2.288-4.163a45.443 45.443 0 0 0-1.377-1.833c-.318.172-.637.348-.955.531a1.146 1.146 0 0 1-1.565-.419 1.142 1.142 0 0 1 .42-1.561c.206-.12.413-.236.62-.35a79.99 79.99 0 0 0-4.297-4.633 78.054 78.054 0 0 0-5.377-4.906c-.14.147-.282.293-.426.436a1.144 1.144 0 0 1-1.62 0 1.142 1.142 0 0 1 0-1.617c.081-.082.16-.165.24-.248a42.255 42.255 0 0 0-1.098-.805c-2.409-1.703-3.639-2.162-4.172-2.283.122.531.582 1.759 2.288 4.163 1.765 2.486 4.306 5.421 7.154 8.264 2.85 2.843 5.79 5.38 8.28 7.14zm5.754-19.304a1.142 1.142 0 0 1 0-1.617c3-2.994 7.738-4.356 11.172-4.632a1.144 1.144 0 0 1 .184 2.28c-3.028.243-7.176 1.414-9.736 3.97a1.144 1.144 0 0 1-1.62 0zm15.028-6.03a1.143 1.143 0 1 1-.594 2.21l-.058-.016a1.144 1.144 0 1 1 .553-2.22l.1.027zM19.09 20.345a1.145 1.145 0 1 1 0-2.287h1.146v-1.144a1.145 1.145 0 0 1 2.292 0v1.144h1.145a1.145 1.145 0 1 1 0 2.287h-1.145v1.144a1.145 1.145 0 0 1-2.292 0v-1.144h-1.146zm26.812 11.093a1.145 1.145 0 1 1 0-2.287h1.146v-1.144a1.145 1.145 0 0 1 2.292 0v1.144h1.146a1.145 1.145 0 1 1 0 2.287h-1.146v1.143c0 .632-.513 1.144-1.146 1.144a1.145 1.145 0 0 1-1.146-1.144v-1.143h-1.146zM61.828 58.54a1.145 1.145 0 1 1 0 2.287h-1.146v1.144a1.145 1.145 0 0 1-2.291 0v-1.144h-1.146a1.145 1.145 0 1 1 0-2.287h1.146v-1.144a1.145 1.145 0 0 1 2.291 0v1.144h1.146zm-6.477-40.897a3.438 3.438 0 0 1-3.438-3.431 3.438 3.438 0 0 1 6.875 0 3.438 3.438 0 0 1-3.437 3.43zm0-4.575c-.632 0-1.146.513-1.146 1.144a1.146 1.146 0 0 0 2.291 0c0-.63-.514-1.144-1.145-1.144zm7.165 17.568a3.438 3.438 0 0 1 3.437 3.43 3.438 3.438 0 0 1-6.875 0 3.438 3.438 0 0 1 3.438-3.43zm0 4.574c.632 0 1.146-.513 1.146-1.143a1.146 1.146 0 0 0-2.292 0c0 .63.514 1.143 1.146 1.143zM33.412 21.716a3.438 3.438 0 0 1-3.438-3.43 3.438 3.438 0 0 1 6.875 0 3.438 3.438 0 0 1-3.437 3.43zm0-4.574c-.632 0-1.146.513-1.146 1.143a1.146 1.146 0 0 0 2.292 0c0-.63-.514-1.143-1.146-1.143zm28.724 27.267a1.147 1.147 0 0 1-2.291 0 1.147 1.147 0 0 1 2.291 0zM49.074 21.652a1.147 1.147 0 0 1-1.146-1.144 1.147 1.147 0 0 1 2.292 0c0 .63-.515 1.144-1.146 1.144zm15.354 30.19c.63 0 1.146.515 1.146 1.144a1.147 1.147 0 0 1-2.292 0c0-.63.515-1.143 1.146-1.143zm-37.812-37.63a1.147 1.147 0 0 1-1.146-1.144 1.147 1.147 0 0 1 2.292 0c0 .63-.515 1.144-1.146 1.144zm4.777 29.566l.04.098a1.143 1.143 0 0 1-1.082 1.522c-.463 0-.897-.283-1.07-.736a1.147 1.147 0 0 1 2.113-.885z"/>
</svg>
