<svg xmlns="http://www.w3.org/2000/svg" width="80" height="80" viewBox="0 0 80 80">
    <path fill="#2EB0FF" fill-rule="evenodd" d="M65.544 44.975H57.49V31.182a.97.97 0 0 0-.973-.966h-6.293l.012-9.133c.514-.701.84-1.702.84-3.38 0-2.996-2.497-6.483-2.603-6.63a.976.976 0 0 0-1.581 0c-.107.147-2.601 3.634-2.601 6.63 0 1.743.393 2.816.936 3.514l-.005 8.999h-2.745l.01-9.137c.515-.701.84-1.702.84-3.38 0-2.996-2.496-6.483-2.603-6.63a.977.977 0 0 0-1.58 0c-.107.147-2.602 3.634-2.602 6.63 0 1.743.393 2.816.936 3.514l-.003 9.003H34.73l.008-9.137c.513-.701.839-1.702.839-3.38 0-2.996-2.496-6.483-2.603-6.63a.976.976 0 0 0-1.58 0c-.107.147-2.602 3.634-2.602 6.63 0 1.743.393 2.816.936 3.514l-.003 9.003h-6.29a.97.97 0 0 0-.972.966v13.793h-8.059a.97.97 0 0 0-.973.966v22.375a.97.97 0 0 0 .973.966h51.14a.97.97 0 0 0 .972-.966V45.94a.969.969 0 0 0-.972-.965zm-17.862-31.52c.644 1.128 1.447 2.82 1.447 4.249 0 1.023-.18 2.749-1.384 2.804a.89.89 0 0 0-.062.005 1.056 1.056 0 0 0-.062-.005c-1.205-.055-1.386-1.78-1.386-2.804 0-1.429.804-3.121 1.447-4.249zm.597 8.984l-.001 7.777h-1.111l.002-7.777h1.11zm-8.345-8.988c.644 1.128 1.447 2.82 1.447 4.249 0 1.023-.18 2.749-1.384 2.804a.881.881 0 0 0-.062.005 1.076 1.076 0 0 0-.062-.005c-1.205-.055-1.385-1.78-1.385-2.804 0-1.429.803-3.121 1.446-4.249zm.597 8.984v7.78h-1.11v-7.78h1.11zm-8.347-8.984c.644 1.128 1.447 2.82 1.447 4.249 0 1.023-.18 2.749-1.385 2.804a.881.881 0 0 0-.061.005 1.076 1.076 0 0 0-.062-.005c-1.205-.055-1.385-1.78-1.385-2.804 0-1.429.802-3.121 1.446-4.249zm.6 16.765H31.67v-7.781h1.11l.003 7.78zm22.76 1.932v4.207c-2.195 4.027-6.831 4.145-7.36 4.145h-.078c-5.136 0-7.154-4.392-7.236-4.576a.973.973 0 0 0-.883-.581h-.01c-.38 0-.725.22-.884.563-2.018 4.373-6.68 4.595-7.593 4.595a1.839 1.839 0 0 1-.106-.002c-4.183 0-6.298-2.922-6.985-4.112v-4.24h31.135zM64.57 67.35H15.377v-8.163c1.489 1.321 3.696 2.545 6.763 2.55l.15.002c1.006 0 5.988-.22 8.883-4.444 1.27 1.78 3.928 4.436 8.483 4.442.454.014 5.934.074 9.031-4.441 1.264 1.774 3.922 4.437 8.49 4.441.334.007 4.291.022 7.393-2.71v8.323zm0-11.586v.356c-2.567 3.74-7.31 3.683-7.358 3.685h-.026c-5.416 0-7.541-4.63-7.627-4.825a.972.972 0 0 0-.883-.58h-.01c-.38 0-.726.22-.885.564-2.292 4.97-7.84 4.848-8.073 4.842l-.037-.001c-5.252 0-7.408-4.348-7.614-4.793a.973.973 0 0 0-.906-.611.974.974 0 0 0-.895.586c-2.298 4.947-7.831 4.825-8.063 4.819l-.037-.001c-3.443 0-5.568-1.836-6.78-3.476v-9.423h28.909a.97.97 0 0 0 .973-.965.97.97 0 0 0-.973-.966H24.409v-5.43c1.428 1.435 3.683 2.882 6.97 2.886l.12.002c1.008 0 5.724-.222 8.498-4.206 1.225 1.7 3.764 4.2 8.095 4.204l.09.001c.534 0 4.46-.1 7.36-2.901v5.443h-2.997a.97.97 0 0 0-.973.966.97.97 0 0 0 .973.966H64.57v8.858z"/>
</svg>
