<svg xmlns="http://www.w3.org/2000/svg" width="80" height="80" viewBox="0 0 80 80">
    <path fill="#2EB0FF" fill-rule="evenodd" d="M50.96 29.158c1.323-.323 2.365-1.514 2.365-2.847v-2.933c0-1.565-1.332-2.934-3.075-2.934h-3.075v-2.933c0-.587-.41-.978-1.025-.978H44.1v-4.889c0-.586-.41-.977-1.025-.977h-6.15c-.615 0-1.025.39-1.025.977v4.89h-2.05c-.615 0-1.025.39-1.025.977v2.933H29.75c-1.64 0-3.075 1.271-3.075 2.934v2.933c0 1.385 1.045 2.616 2.494 2.88.988 1.499 1.606 3.835 1.606 5.92 0 2.05-.682 4.342-1.58 5.916-1.395.248-2.52 1.412-2.52 2.884V66.4c0 1.564 1.332 2.933 3.075 2.933h20.5c1.64 0 3.076-1.369 3.076-2.933V43.911c0-1.385-1.045-2.616-2.494-2.88-.989-1.499-1.607-3.835-1.607-5.92 0-1.555 1.12-4.483 1.735-5.953zm-2.452 11.82H31.492c.82-1.76 1.333-3.911 1.333-5.867s-.513-4.107-1.333-5.867h17.22c-.614 1.565-1.537 4.205-1.537 5.867 0 1.956.513 4.107 1.333 5.867zM37.95 12.622h4.1v3.911h-4.1v-3.91zm-3.075 5.867h10.25v1.956h-10.25v-1.956zm-6.15 4.889c0-.49.41-.978 1.025-.978h20.5c.513 0 1.025.391 1.025.978v2.933c0 .489-.41.978-1.025.978h-20.5c-.513 0-1.025-.391-1.025-.978v-2.933zM51.275 66.4c0 .489-.41.978-1.025.978h-20.5c-.513 0-1.025-.391-1.025-.978V43.911c0-.489.41-.978 1.025-.978h20.5c.513 0 1.025.391 1.025.978V66.4z"/>
</svg>
