<svg xmlns="http://www.w3.org/2000/svg" width="80" height="80" viewBox="0 0 80 80">
    <path fill="#2EB0FF" fill-rule="evenodd" d="M55.478 17.043h7.652a2.55 2.55 0 0 1 2.551 2.551v47.189a2.55 2.55 0 0 1-2.55 2.55H17.216a2.55 2.55 0 0 1-2.55-2.55V19.594a2.55 2.55 0 0 1 2.55-2.55h7.653v2.423h-6.497c-.704 0-1.28.576-1.28 1.28v44.88c0 .704.576 1.28 1.28 1.28h43.6c.704 0 1.28-.576 1.28-1.28v-44.88c0-.704-.576-1.28-1.28-1.28h-6.495v-2.424zm-3.826 0c.704 0 1.276.572 1.276 1.276v6.377c0 .704-.572 1.275-1.276 1.275H28.696a1.276 1.276 0 0 1-1.276-1.275v-6.377c0-.704.572-1.276 1.276-1.276h5.101a6.378 6.378 0 0 1 12.754 0h5.101zm-11.478 2.551a2.55 2.55 0 1 0 .001-5.1 2.55 2.55 0 0 0-.001 5.1zM29.165 42.313l-4.058-4.058a.81.81 0 1 1 1.148-1.148l3.484 3.484 6.73-6.73a.81.81 0 1 1 1.148 1.147l-7.304 7.305a.81.81 0 0 1-1.148 0zM55.478 40H42.725c-.766 0-1.276-.51-1.276-1.275 0-.766.51-1.276 1.276-1.276h12.753c.765 0 1.276.51 1.276 1.276 0 .765-.51 1.275-1.276 1.275zM29.165 55.066l-4.058-4.058a.81.81 0 1 1 1.148-1.147l3.484 3.484 6.73-6.73a.81.81 0 1 1 1.148 1.147l-7.304 7.304a.81.81 0 0 1-1.148 0zm26.313-2.312H42.725c-.766 0-1.276-.51-1.276-1.276 0-.765.51-1.275 1.276-1.275h12.753c.765 0 1.276.51 1.276 1.275 0 .765-.51 1.276-1.276 1.276z"/>
</svg>
