<svg xmlns="http://www.w3.org/2000/svg" width="80" height="80" viewBox="0 0 80 80">
    <path fill="#2EB0FF" fill-rule="evenodd" d="M69.112 39.675l-6.448-7.523 6.448-7.524a.914.914 0 0 0-.25-1.397L47.984 11.633a.917.917 0 0 0-1.09.15l-6.341 6.287-6.284-6.284a.916.916 0 0 0-1.107-.145L11.124 24.4a.918.918 0 0 0-.137 1.489l7.468 6.4-6.445 8.592a.913.913 0 0 0 .289 1.351l6.42 3.567a.895.895 0 0 0-.055.272v8.48c0 1.12.603 2.164 1.574 2.728l18.654 10.769a3.26 3.26 0 0 0 1.627.434l.017-.001c.005 0 .009.003.014.003.01 0 .017-.006.027-.006a3.26 3.26 0 0 0 1.57-.43L60.745 57.31a3.275 3.275 0 0 0 1.63-2.825v-9.447l6.52-3.985a.916.916 0 0 0 .218-1.378zm-29.479 2.5l-18.11-10.06 18.11-11.069v21.13zm1.833-21.166l18.172 11.105L41.466 42.21v-21.2zm6.23-7.439L66.99 24.288l-5.72 6.674L42.02 19.198l5.677-5.628zm-14.225.01l5.638 5.638-19.316 11.804-6.631-5.684L33.47 13.58zM19.956 33.34l19.221 10.68-5.813 7.817L14.108 41.14l5.848-7.798zm1.2 22.35a1.323 1.323 0 0 1-.658-1.14v-7.764l12.678 7.044a.912.912 0 0 0 1.18-.254l5.277-7.097v19.879L21.156 55.69zm39.385-1.205c0 .508-.274.982-.714 1.238l-18.36 10.6V46.46l5.34 7.12a.915.915 0 0 0 1.21.232l12.524-7.653v8.327zm-12.768-2.673l-5.83-7.77L61.25 33.315l5.771 6.734-19.247 11.762z"/>
</svg>
