<svg xmlns="http://www.w3.org/2000/svg" width="80" height="80" viewBox="0 0 80 80">
    <path fill="#2EB0FF" fill-rule="evenodd" d="M70.052 35.784c-.654-.769-1.576-1.209-2.528-1.209h-1.432v-1.13c0-2.031-1.804-3.685-4.02-3.685h-1.887v-2.086c0-.983-.429-1.94-1.174-2.63-1.483-1.37-4.046-1.37-5.529 0a3.607 3.607 0 0 0-1.174 2.63v9.791h-25.6v-9.79c0-.983-.428-1.94-1.174-2.63-1.483-1.37-4.046-1.37-5.529 0a3.603 3.603 0 0 0-1.174 2.63v2.086h-2.117c-.996 0-1.937.352-2.652.99-.723.65-1.139 1.557-1.139 2.488v1.336h-1.418c-.957 0-1.882.442-2.54 1.214C8.345 36.52 8 37.482 8 38.496v5.64c0 1.014.344 1.976.967 2.707.657.772 1.582 1.214 2.538 1.214h1.418v1.336c0 .93.416 1.838 1.141 2.49a3.96 3.96 0 0 0 2.65.989h2.117v2.086c0 .983.428 1.94 1.173 2.63a4.055 4.055 0 0 0 2.765 1.061 4.055 4.055 0 0 0 2.765-1.062 3.601 3.601 0 0 0 1.174-2.629v-9.79h25.6v9.79c0 .983.428 1.94 1.173 2.63a4.055 4.055 0 0 0 2.765 1.061 4.055 4.055 0 0 0 2.765-1.062 3.605 3.605 0 0 0 1.174-2.629v-2.086h1.887c2.216 0 4.02-1.653 4.02-3.685v-1.13h1.432c.952 0 1.874-.441 2.53-1.209.62-.729.962-1.686.962-2.696V38.48c0-1.01-.342-1.968-.964-2.697zM11.505 46.13c-.375 0-.74-.185-1.025-.52-.325-.38-.51-.919-.51-1.475v-5.64c0-.556.185-1.093.51-1.475.286-.335.65-.52 1.025-.52h1.418v9.63h-1.418zm5.209 4.815c-.495 0-.977-.177-1.319-.483-.324-.292-.503-.671-.503-1.07V33.238c0-.398.179-.778.501-1.068a2 2 0 0 1 1.32-.484h2.118v19.26h-2.117zm8.024 4.012c0 .462-.197.898-.556 1.229-.738.682-2.086.682-2.825 0a1.665 1.665 0 0 1-.557-1.229V27.673c0-.46.198-.897.556-1.228.37-.34.884-.536 1.413-.536s1.044.195 1.413.536c.359.331.556.768.556 1.23v27.283zm1.97-11.716V39.39h25.6v3.852h-25.6zm31.507 11.716c0 .462-.198.898-.556 1.229-.738.682-2.086.682-2.825 0a1.665 1.665 0 0 1-.557-1.229V27.675c0-.462.198-.898.556-1.23.37-.34.884-.535 1.413-.535s1.044.195 1.413.536c.358.33.556.767.556 1.229v27.283zm5.908-5.77c0 .969-.92 1.758-2.05 1.758h-1.888v-19.26h1.887c1.13 0 2.051.789 2.051 1.759V49.187zm4.923-5.037c0 .553-.185 1.085-.506 1.464-.284.333-.645.516-1.016.516h-1.432V36.5h1.432c.371 0 .732.183 1.016.516.322.378.506.911.506 1.464v5.67z"/>
</svg>
