<svg xmlns="http://www.w3.org/2000/svg" width="80" height="80" viewBox="0 0 80 80">
    <path fill="#2EB0FF" fill-rule="evenodd" d="M68.842 13.514c.31.233.491.598.491.986v11.223c0 .327-.13.641-.361.873l-2.043 2.042c-.204.204-.474.33-.763.356l-6.423.574.056 5.676c.004.332-.127.65-.361.885l-2.43 2.43c-.23.23-.54.359-.864.361l-4.896.035-3.067 3.048a19.367 19.367 0 0 1 1.605 7.77c0 10.786-8.774 19.56-19.56 19.56-10.785 0-19.56-8.774-19.56-19.56 0-10.785 8.775-19.56 19.56-19.56 2.423 0 4.779.437 7.015 1.298l20.483-20.482c.231-.232.545-.362.873-.362h6.056c.268 0 .529.087.743.248l3.446 2.6zm-3.341 13.062l1.364-1.365V15.115l-2.625-1.98h-5.132L38.406 33.836c-.359.359-.9.462-1.365.26a16.97 16.97 0 0 0-6.814-1.415c-9.425 0-17.092 7.668-17.092 17.092 0 9.425 7.667 17.092 17.092 17.092 9.424 0 17.09-7.667 17.091-17.092 0-2.628-.581-5.15-1.727-7.494a1.234 1.234 0 0 1 .24-1.419l4.034-4.01c.23-.228.538-.357.861-.36l4.895-.034 1.705-1.706-.062-6.298a1.234 1.234 0 0 1 1.124-1.241l7.113-.635zm-16.759 2.937a1.234 1.234 0 1 1 1.729 1.762l-.02.019a1.23 1.23 0 0 1-1.745-.017 1.234 1.234 0 0 1 .017-1.745l.019-.019zM60.45 17.805a1.234 1.234 0 0 1 1.745 1.745l-9.29 9.29a1.23 1.23 0 0 1-1.744 0 1.234 1.234 0 0 1 0-1.746l9.289-9.289zM24.088 51.013c1.308 0 2.539.51 3.464 1.435a4.905 4.905 0 0 1 0 6.928 4.867 4.867 0 0 1-3.464 1.435 4.867 4.867 0 0 1-3.464-1.434 4.905 4.905 0 0 1 0-6.93 4.867 4.867 0 0 1 3.464-1.434zm1.719 6.618a2.434 2.434 0 0 0 0-3.438 2.415 2.415 0 0 0-1.72-.712c-.649 0-1.259.253-1.718.712a2.434 2.434 0 0 0 0 3.438c.459.46 1.07.712 1.719.712.65 0 1.26-.253 1.719-.712z"/>
</svg>
