<svg xmlns="http://www.w3.org/2000/svg" width="80" height="80" viewBox="0 0 80 80">
    <path fill="#2EB0FF" fill-rule="evenodd" d="M58.286 20.52c3.15 0 5.714 2.57 5.714 5.73v2.292c0 .633-.512 1.146-1.143 1.146h-3.553l-4.217 36.607a3.434 3.434 0 0 1-3.405 3.038H28.318a3.433 3.433 0 0 1-3.405-3.035l-4.217-36.61h-3.553A1.144 1.144 0 0 1 16 28.542V26.25c0-3.16 2.563-5.73 5.714-5.73h8v-4.124c0-3.16 2.564-5.73 5.715-5.73h9.142c3.151 0 5.715 2.57 5.715 5.73v4.125h8zM32 16.397v4.125h16v-4.125a3.437 3.437 0 0 0-3.429-3.438H35.43A3.437 3.437 0 0 0 32 16.396zm20.817 49.633l4.186-36.341H22.997l4.186 36.344c.068.574.556 1.01 1.135 1.01h23.364c.58 0 1.067-.436 1.135-1.013zm8.897-38.633V26.25a3.437 3.437 0 0 0-3.428-3.437H21.714a3.437 3.437 0 0 0-3.428 3.437v1.146H61.714zM50.223 48.253c.592 1.192.592 2.503 0 3.576-.71 1.072-1.894 1.787-3.195 1.787h-2.722l.355.358a1.158 1.158 0 0 1 0 1.668c-.237.239-.473.358-.828.358s-.592-.12-.829-.358L40.52 53.26c-.236-.239-.355-.477-.355-.834 0-.358.119-.596.237-.835l2.485-2.383a1.138 1.138 0 0 1 1.657 0 1.158 1.158 0 0 1 0 1.668l-.355.358h2.721c.474 0 .947-.239 1.184-.596.118-.238.355-.715 0-1.192l-1.657-2.86c-.237-.596-.118-1.311.473-1.669.592-.238 1.302-.119 1.657.477l1.657 2.86zm-13.846 2.86c.71 0 1.184.477 1.184 1.193 0 .715-.473 1.191-1.184 1.191h-3.195c-1.301 0-2.485-.596-3.195-1.787-.591-1.192-.591-2.503 0-3.576l1.657-2.74-.828.237c-.592.239-1.302-.238-1.42-.834-.237-.596.236-1.31.828-1.43l3.432-.834c.591-.239 1.183.119 1.42.715l.946 3.218c.119.596-.236 1.31-.828 1.43h-.355c-.592 0-1.065-.358-1.183-.834l-.119-.358L32 49.326c-.237.596-.118 1.073 0 1.192.237.357.71.596 1.183.596h3.195zm9.94-13.943c.592.119.947.834.947 1.43l-.946 3.217c-.237.477-.71.835-1.184.835h-.236l-3.432-.835c-.592-.119-.947-.834-.828-1.43.118-.596.828-.953 1.42-.834l.473.12-1.183-2.027c-.474-.834-1.775-.834-2.249 0l-1.301 2.265c-.355.596-1.066.834-1.657.476-.592-.357-.829-1.072-.474-1.668l1.302-2.265c.71-1.072 1.894-1.787 3.195-1.787 1.302 0 2.485.596 3.195 1.787l1.302 2.265.237-.715c.118-.596.828-.954 1.42-.834z"/>
</svg>
