<svg xmlns="http://www.w3.org/2000/svg" width="80" height="80" viewBox="0 0 80 80">
    <path fill="#2EB0FF" fill-rule="evenodd" d="M34.422 27.237c7.582 0 13.75 6.324 13.75 14.096 0 7.773-6.168 14.096-13.75 14.096S20.67 49.106 20.67 41.333c0-7.772 6.169-14.096 13.75-14.096zm0 25.978c6.391 0 11.591-5.33 11.591-11.882 0-6.551-5.2-11.882-11.591-11.882-6.391 0-11.591 5.33-11.591 11.882s5.2 11.882 11.59 11.882zm39.165-31.882c.596 0 1.08.496 1.08 1.107v4.084c0 2.283-1.594 4.211-3.79 4.586l-13.034 2.227c-2.266.387-3.91 2.377-3.91 4.732v2.779c0 11.203-8.678 20.392-19.343 20.485h-.17c-5.213 0-10.105-2.076-13.794-5.858a20.004 20.004 0 0 1-5.379-10.417 4.44 4.44 0 0 1-2.711.925c-2.501 0-4.536-2.086-4.536-4.65 0-2.563 2.035-4.65 4.536-4.65a4.44 4.44 0 0 1 2.723.935c1.75-9.249 9.917-16.285 19.637-16.285h9.893c.596 0 1.08.496 1.08 1.107v1.181c0 .692.549 1.255 1.224 1.255.675 0 1.224-.563 1.224-1.255v-1.18c0-.612.483-1.108 1.08-1.108h24.19zM12.536 43.77c1.31 0 2.375-1.093 2.375-2.436s-1.065-2.435-2.375-2.435-2.376 1.092-2.376 2.435 1.066 2.436 2.376 2.436zm59.97-17.245v-2.977h-22.03v.074c0 1.913-1.517 3.469-3.383 3.469s-3.384-1.556-3.384-3.469v-.074h-8.813c-9.748 0-17.744 7.91-17.824 17.633-.04 4.81 1.765 9.33 5.081 12.73 3.28 3.363 7.632 5.21 12.268 5.21l.15-.001c9.485-.082 17.201-8.279 17.201-18.271v-2.779c0-3.441 2.404-6.35 5.716-6.916l13.034-2.226c1.15-.197 1.985-1.207 1.985-2.403z"/>
</svg>
