<svg xmlns="http://www.w3.org/2000/svg" width="80" height="80" viewBox="0 0 80 80">
    <path fill="#2EB0FF" fill-rule="evenodd" d="M63.467 20.242c3.226 0 5.866 2.591 5.866 5.758v32.242c0 3.167-2.64 5.758-5.866 5.758H16.533c-3.226 0-5.866-2.59-5.866-5.758V26c0-3.167 2.64-5.758 5.866-5.758H31.2v-3.454c0-1.9 1.584-3.455 3.52-3.455h10.56c1.936 0 3.52 1.555 3.52 3.455v3.454h14.667zm-29.92-3.454v3.454h12.906v-3.454c0-.633-.528-1.152-1.173-1.152H34.72c-.645 0-1.173.519-1.173 1.152zM20.053 61.697V22.545h-3.52c-1.936 0-3.52 1.555-3.52 3.455v32.242c0 1.9 1.584 3.455 3.52 3.455h3.52zm46.934-3.455V26c0-1.9-1.584-3.455-3.52-3.455H22.4v39.152h35.2V36.939c0-.633.528-1.151 1.173-1.151.646 0 1.174.518 1.174 1.151v24.758h3.52c1.936 0 3.52-1.555 3.52-3.455zM58.773 28.88c.646 0 1.174.518 1.174 1.151v1.728c0 .633-.528 1.151-1.174 1.151a1.166 1.166 0 0 1-1.173-1.151V30.03c0-.633.528-1.151 1.173-1.151zm-6.817 19.12L51.91 48h-6.578v6.667c0 .736-.597 1.333-1.333 1.333h-8a1.333 1.333 0 0 1-1.333-1.333V48h-6.223c-.075 0-.15-.006-.222-.018a1.333 1.333 0 0 1-1.556-1.315v-8a1.333 1.333 0 0 1 1.556-1.315c.072-.012.147-.019.222-.019h6.223v-6.666c0-.737.597-1.334 1.333-1.334h8a1.33 1.33 0 0 1 1.333 1.334v6.666h6.578l.045.001H52c.736 0 1.333.596 1.333 1.333v8a1.333 1.333 0 0 1-1.377 1.332zm-1.29-2.666V40h-6.222c-.075 0-.15-.006-.222-.018a1.333 1.333 0 0 1-1.556-1.315V32h-5.333v6.667a1.333 1.333 0 0 1-1.377 1.332L35.91 40h-6.578v5.333h6.578l.045.001H36c.736 0 1.333.596 1.333 1.333v6.666h5.334v-6.666a1.333 1.333 0 0 1 1.555-1.315c.072-.012.147-.019.222-.019h6.223z"/>
</svg>
