<svg xmlns="http://www.w3.org/2000/svg" width="80" height="80" viewBox="0 0 80 80">
    <path fill="#2EB0FF" fill-rule="evenodd" d="M60.211 35.22c-1.836 0-3.536-.764-4.787-2.15a6.79 6.79 0 0 1-1.733-5.075l.956-13.522a1.082 1.082 0 0 0-.273-.8 1.017 1.017 0 0 0-.755-.34h-5.785c-.564 0-1.023.468-1.03 1.05-.048 3.814-3.1 6.918-6.804 6.918-3.703 0-6.755-3.104-6.803-6.919-.008-.581-.467-1.049-1.031-1.049h-5.778c-.286 0-.56.123-.755.34a1.082 1.082 0 0 0-.273.8l.956 13.522a6.789 6.789 0 0 1-1.733 5.075c-1.25 1.386-2.95 2.15-4.794 2.15-.57 0-1.032.475-1.032 1.062v29.322c0 .587.462 1.063 1.032 1.063h40.423c.569 0 1.03-.476 1.03-1.063V36.282c0-.587-.461-1.063-1.03-1.063zm-1.03 29.322H20.82v-1.806h38.36v1.806zm0-3.931H20.82v-2.656h38.36v2.656zm0-4.781H20.82V37.28a8.547 8.547 0 0 0 5.273-2.763c1.622-1.796 2.452-4.23 2.28-6.676l-.876-12.383h3.708a9.183 9.183 0 0 0 2.563 5.331c1.67 1.7 3.884 2.637 6.232 2.637 2.348 0 4.561-.936 6.232-2.637a9.182 9.182 0 0 0 2.563-5.33h3.715l-.875 12.382c-.173 2.446.657 4.88 2.279 6.676a8.546 8.546 0 0 0 5.266 2.762V55.83z"/>
</svg>
