<svg xmlns="http://www.w3.org/2000/svg" width="80" height="80" viewBox="0 0 80 80">
    <path fill="#2EB0FF" fill-rule="evenodd" d="M52.678 13.333c-.062 0-.124.01-.185.02-8.356.047-19.236 3.503-27.482 11.709-6.453 6.43-9.991 14.483-11.256 21.657-1.265 7.168-.438 13.494 2.753 16.671 2.273 2.273 6.187 3.277 10.838 3.277 8.379 0 19.354-3.48 27.657-11.743 6.454-6.43 9.987-14.498 11.247-21.666 1.255-7.174.433-13.5-2.74-16.662-2.225-2.212-6.039-3.187-10.561-3.23a1.326 1.326 0 0 0-.271-.033zm0 2.425c3.514 0 6.387.733 8.127 1.813l-7.057 7.027a1.2 1.2 0 0 0-.333 1.179c.11.426.442.757.87.866.424.114.88-.014 1.184-.331l7.062-7.032c1.584 2.58 2.35 7.704 1.322 13.56-1.18 6.715-4.522 14.348-10.576 20.365-7.775 7.747-18.242 11.037-25.931 11.037-3.52 0-6.396-.738-8.137-1.822l7.043-7.018c.361-.35.466-.88.271-1.34a1.212 1.212 0 0 0-1.992-.374l-7.053 7.017c-1.598-2.59-2.358-7.713-1.327-13.57 1.185-6.709 4.537-14.332 10.586-20.355 7.775-7.746 18.247-11.022 25.941-11.022zM41.203 27.865a1.234 1.234 0 0 0-1.127.757c-.185.46-.076.98.28 1.326l3.377 3.366c-.052.204-.08.412-.08.625 0 .213.028.422.085.625l-3.11 3.092a2.535 2.535 0 0 0-.628-.08c-.214 0-.423.028-.628.085l-3.38-3.366a1.23 1.23 0 0 0-.876-.37 1.234 1.234 0 0 0-1.127.758c-.185.459-.076.98.28 1.326l3.377 3.366c-.052.204-.08.412-.08.625 0 .213.028.421.085.625l-3.11 3.092a2.535 2.535 0 0 0-.628-.08c-.214 0-.423.028-.628.085l-3.38-3.367a1.23 1.23 0 0 0-.876-.37 1.234 1.234 0 0 0-1.127.758c-.185.46-.076.98.28 1.326l3.377 3.367c-.052.203-.08.412-.08.625 0 .213.028.421.085.625L29.4 48.84a1.2 1.2 0 0 0-.333 1.179c.11.426.443.758.87.866.424.114.88-.014 1.185-.331l2.163-2.15c.205.052.414.08.628.08.214 0 .423-.028.628-.084l3.38 3.366c.305.317.762.445 1.185.332.428-.11.76-.44.87-.867a1.2 1.2 0 0 0-.333-1.179l-3.376-3.366c.052-.204.08-.412.08-.625 0-.213-.028-.422-.085-.625l3.11-3.092c.205.052.414.08.628.08.214 0 .423-.028.628-.085l3.38 3.366c.305.318.762.446 1.185.332.428-.109.76-.44.87-.867a1.2 1.2 0 0 0-.333-1.179l-3.376-3.366c.052-.204.08-.412.08-.625 0-.213-.028-.421-.085-.625l3.11-3.092c.205.052.414.08.628.08.214 0 .423-.028.628-.085l3.38 3.367c.305.317.762.445 1.185.331.428-.109.76-.44.87-.866a1.2 1.2 0 0 0-.333-1.18l-3.376-3.366c.052-.203.08-.412.08-.625 0-.213-.028-.421-.085-.625L50.6 31.16c.361-.35.466-.88.27-1.34a1.212 1.212 0 0 0-1.992-.374l-2.163 2.15a2.535 2.535 0 0 0-.628-.08c-.214 0-.423.028-.628.084l-3.38-3.366a1.23 1.23 0 0 0-.876-.37z"/>
</svg>
