<svg xmlns="http://www.w3.org/2000/svg" width="80" height="80" viewBox="0 0 80 80">
    <path fill="#2EB0FF" fill-rule="evenodd" d="M61.722 10.667H18.278c-.522 0-.945.41-.945.916v56.834c0 .506.423.916.945.916h43.444a.93.93 0 0 0 .945-.916V11.583a.93.93 0 0 0-.945-.916zM33.803 17.11v-4.583h12.393v4.583H33.803zM31.915 12.5v5.528a.93.93 0 0 0 .944.916h14.282a.93.93 0 0 0 .945-.916V12.5h12.692v25.89H49.396c-.475-4.625-4.508-8.25-9.396-8.25-4.888 0-8.921 3.625-9.396 8.25H19.222V12.5h12.693zm.595 25.89c.467-3.611 3.644-6.416 7.49-6.416s7.023 2.805 7.49 6.416H32.51zm14.98 1.834c-.467 3.611-3.644 6.416-7.49 6.416s-7.023-2.805-7.49-6.416h14.98zM46.197 62.66v4.583H33.803V62.66h12.394zm1.89 4.84v-5.757a.93.93 0 0 0-.945-.916H32.859a.93.93 0 0 0-.944.916V67.5H19.222V40.224h11.382c.475 4.625 4.508 8.25 9.396 8.25 4.888 0 8.921-3.625 9.396-8.25h11.382V67.5H48.086z"/>
</svg>
