<svg xmlns="http://www.w3.org/2000/svg" width="80" height="80" viewBox="0 0 80 80">
    <path fill="#2EB0FF" fill-rule="evenodd" d="M54.933 23.663a6.157 6.157 0 0 0 1.644-4.202c0-3.407-2.721-6.128-6.02-6.128-2.503 0-8.271 3.745-10.579 7.108-2.383-3.363-8.13-6.999-10.536-6.999-3.287 0-6.019 2.721-6.019 6.128 0 1.578.588 3.004 1.535 4.082H16a2.667 2.667 0 0 0-2.667 2.666v9.306A2.667 2.667 0 0 0 16 38.291h.512V64a2.667 2.667 0 0 0 2.666 2.667h41.655A2.667 2.667 0 0 0 63.499 64V38.302H64a2.667 2.667 0 0 0 2.667-2.667V26.33A2.667 2.667 0 0 0 64 23.663h-9.067zm-4.375-8.055c2.046 0 3.744 1.698 3.744 3.973 0 1.916-1.339 3.56-3.07 3.907h-9.208c-.587-.174-.772-.38-.772-.5 0-1.938 6.802-7.38 9.306-7.38zm-21.116 0c2.384 0 9.306 5.442 9.306 7.38 0 .174-.402.37-.696.5h-9.274c-1.73-.348-3.07-1.991-3.07-3.907-.01-2.166 1.699-3.973 3.734-3.973zm3.744 48.784h-14.41v-26.09h14.41v26.09zm0-28.245H15.608v-10.21h17.59v10.21h-.012zm11.342 28.245H35.45V25.927h9.078v38.465zm16.686 0H46.803v-26.09h14.41v26.09zm3.167-28.245H46.803v-10.21h17.589v10.21h-.011z"/>
</svg>
