<svg xmlns="http://www.w3.org/2000/svg" width="80" height="80" viewBox="0 0 80 80">
    <path fill="#2EB0FF" fill-rule="evenodd" d="M66.657 32c-.088-1.52-1.897-2.71-5.515-3.616.122-.267.19-.544.191-.832v-6.219h-.015C61 16.153 39.772 16 37.333 16c-2.438 0-23.666.153-23.985 5.333h-.015V27.555c.005 1.689 2.184 3.01 5.427 3.994a1.95 1.95 0 0 0-.08.451h-.013V38.211c-3.494.9-5.239 2.07-5.325 3.567h-.009v6.221c.003 1.176 1.063 2.173 2.799 3.005-.066.18-.107.364-.119.552H16V57.778c.007 2.956 6.664 4.792 14.06 5.649.055.01.104.033.162.033.017 0 .031-.01.048-.01 1.426.16 2.875.286 4.309.376.03.003.057.018.088.018.017 0 .03-.01.046-.01 1.82.11 3.611.166 5.287.166 1.676 0 3.467-.056 5.287-.167.016 0 .03.01.046.01.031 0 .058-.015.088-.018a86.1 86.1 0 0 0 4.309-.376c.017 0 .03.009.048.009.058 0 .107-.022.162-.033 7.396-.857 14.052-2.693 14.06-5.65v-6.22h-.014c-.062-1.09-.991-1.999-2.826-2.759.112-.256.173-.523.173-.8v-5.81c3.191-.98 5.33-2.294 5.334-3.967V32h-.01zM59.46 48.285l-.304.266c-.466.412-1.244.827-2.267 1.227V45.54c1.057-.368 1.956-.776 2.667-1.224v3.679c0 .091-.034.189-.096.29zm-19.881 4.131c-.13.004-.26.005-.391.008-.318.006-.643.008-.965.01v-4.44c.245-.002.489-.006.733-.01.048 0 .095-.002.142-.003.895-.017 1.79-.044 2.68-.085v4.438a78.948 78.948 0 0 1-2.2.082zm-3.882.012a90.54 90.54 0 0 1-1.215-.029l-.15-.005a93.933 93.933 0 0 1-1.442-.06v-4.437c.89.042 1.786.07 2.68.085l.141.003c.245.004.489.008.733.01v4.443l-.516-.004-.231-.006zm-16.055-2.026a3.144 3.144 0 0 0-.086-.025v-4.294c.83.224 1.722.428 2.666.614v4.339a41.113 41.113 0 0 1-2.254-.543c-.108-.03-.22-.06-.326-.091zm18.736 7.36c.244.005.489.009.733.011v4.444a89.808 89.808 0 0 1-3.555-.103v-4.438a92.576 92.576 0 0 0 2.822.087zm3.386-.002c.895-.017 1.79-.044 2.68-.085v4.438a89.808 89.808 0 0 1-3.555.103v-4.444a100.864 100.864 0 0 0 .875-.012zm7.125-.402v4.414c-.854.09-1.743.17-2.667.234v-4.433c.902-.058 1.792-.13 2.667-.215zm1.778-.192c.916-.11 1.806-.235 2.666-.375v4.365c-.837.147-1.727.283-2.666.407v-4.397zm4.444-.692c.944-.186 1.837-.39 2.667-.614v4.294c-.792.228-1.684.45-2.667.658v-4.338zm-30.222 0v4.338a38.722 38.722 0 0 1-2.667-.658V55.86c.83.224 1.723.429 2.667.614zm1.778.318c.86.14 1.75.265 2.666.375v4.397c-.94-.124-1.829-.26-2.666-.408v-4.364zm4.444.566c.875.085 1.765.157 2.667.216v4.433a77.407 77.407 0 0 1-2.667-.234v-4.415zm-2.205-5.315l-.27-.028-.192-.02V47.58c.875.085 1.766.157 2.667.216v4.43a86.036 86.036 0 0 1-2.205-.184zm-2.24-4.655v4.397c-.939-.124-1.829-.26-2.666-.407v-4.365c.86.14 1.75.266 2.667.375zm17.482 4.797l-.592.044v-4.433c.9-.06 1.792-.13 2.666-.216v4.415a72.555 72.555 0 0 1-2.074.19zm3.852-.4v-4.397c.916-.11 1.806-.235 2.667-.375v4.365c-.838.147-1.727.284-2.667.407zm4.444-5.089c.944-.186 1.837-.39 2.667-.614v4.294c-.792.228-1.683.45-2.667.659v-4.339zm-12.155-4.06a84.59 84.59 0 0 1-1.964-.074l-.103-.005V38.12c.89.042 1.786.07 2.681.085l.14.003c.245.005.49.008.734.01v4.439c-.433-.004-.87-.006-1.292-.016l-.196-.004zM19.556 29.932v-4.294c.83.224 1.722.429 2.666.614v4.34l-.329-.07a37.446 37.446 0 0 1-2.337-.59zM35.71 27.54c.245.005.489.008.733.011v4.438a88.141 88.141 0 0 1-3.555-.101v-4.435c.89.042 1.786.07 2.68.086l.142.001zm3.386-.002c.895-.017 1.79-.045 2.68-.086v4.435c-.15.007-.295.018-.447.025-.013 0-.025 0-.038.002-.597.026-1.205.046-1.82.06l-.289.006c-.316.007-.64.008-.96.011v-4.44l.733-.01.14-.003zm20.255.446l-.025-.005-.323.251c-.47.366-1.19.735-2.115 1.093v-4.229c1.057-.368 1.956-.776 2.667-1.223v3.678c0 .135-.072.281-.204.435zM48 31.335v-4.391c.916-.11 1.806-.236 2.667-.375v4.357c-.843.15-1.73.286-2.667.41zm4.444-.751v-4.332c.944-.185 1.837-.39 2.667-.614v4.285c-.796.232-1.693.453-2.667.661zm-6.222-3.448v4.409c-.858.09-1.747.17-2.666.235v-4.428c.9-.06 1.792-.132 2.666-.216zm-17.778 4.41v-4.41c.875.084 1.766.156 2.667.216v4.425a80.605 80.605 0 0 1-2.667-.23zm-1.777-4.602v4.392c-.176-.023-.36-.042-.534-.066l-.334-.049a64.347 64.347 0 0 1-1.508-.235L24 30.934V26.57c.86.138 1.75.265 2.667.374zm9.557 15.49l-.36-.026a77.169 77.169 0 0 1-1.667-.148l-.348-.035-.071-.008v-4.414c.874.084 1.765.156 2.666.216v4.43l-.22-.014zm-5.873-.663c-.352-.056-.683-.117-1.018-.175v-4.36c.86.14 1.75.265 2.667.376v4.396a68.194 68.194 0 0 1-1.649-.237zm-2.795-4.853v4.332a37.343 37.343 0 0 1-2.667-.668v-4.278c.83.224 1.723.43 2.667.614zm-4.445-1.157v4.223c-1.397-.54-2.299-1.09-2.592-1.581l-.06-.1c-.005-.027-.014-.057-.015-.084v-3.681c.71.447 1.61.855 2.667 1.223zm21.32 2.443c.894-.016 1.79-.044 2.68-.085v4.434c-1.168.058-2.355.09-3.555.102v-4.437l.733-.01.141-.004zm11.486 3.411a57.23 57.23 0 0 1-1.896.299c-.225.032-.458.06-.687.089V37.61c.917-.11 1.806-.236 2.667-.375V41.6l-.084.015zm-6.018.76c-.332.027-.674.045-1.01.069v-4.425c.901-.06 1.792-.131 2.667-.216v4.41c-.517.054-1.032.108-1.563.152l-.094.01zm10.158-1.667a35.895 35.895 0 0 1-2.068.504c-.068.016-.141.029-.21.044v-4.337c.944-.186 1.836-.39 2.666-.614v4.294l-.388.109zm4.822-8.65c-.082.603-1.45 1.406-3.891 2.16-3.145.972-8.066 1.862-14.303 2.138-.319.013-.637.026-.962.037a103.05 103.05 0 0 1-3.056.052 97.683 97.683 0 0 1-3.056-.053c-.327-.01-.645-.024-.963-.037-6.236-.276-11.158-1.166-14.302-2.137-2.422-.749-3.788-1.545-3.89-2.146.005-.017.005-.031.016-.052.06.015.128.027.19.042.347.083.703.163 1.066.24a60.38 60.38 0 0 0 5.809.93c.007 0 .012.004.019.004l.004-.001c1.42.161 2.894.289 4.407.378.012 0 .021.007.033.007.006 0 .01-.004.017-.004a90.897 90.897 0 0 0 6.744.148c6.459-.1 12.444-.868 16.61-2.058.192-.054.38-.11.564-.166.113-.035.229-.069.338-.104.322-.103.63-.208.928-.319l.152-.058c.251-.095.493-.194.724-.295.067-.029.135-.057.2-.087.247-.11.485-.225.705-.343.1-.052.186-.106.28-.16.106-.061.213-.123.311-.186.056-.036.123-.07.176-.105 3.98.863 5.029 1.807 5.13 2.175zm-27.546-14.28c14.657 0 22.07 2.307 22.21 3.632-.108.6-1.473 1.394-3.889 2.141-3.145.972-8.066 1.861-14.302 2.137-.32.013-.637.027-.963.037a97.683 97.683 0 0 1-3.056.052c-.77 0-1.516-.01-2.252-.028-.27-.006-.537-.015-.804-.024-.326-.01-.644-.024-.962-.037-6.237-.276-11.159-1.165-14.303-2.137-2.416-.747-3.78-1.54-3.888-2.141.14-1.325 7.552-3.632 22.21-3.632zm-22.222 9.774v-3.68c.71.446 1.61.854 2.667 1.222v4.256c-1.73-.648-2.665-1.298-2.667-1.798zm4.306 12.301c.013.015.034.027.047.041 1.217 1.229 3.737 2.194 6.874 2.914l.221.05c.23.051.464.102.7.15 2.881.614 6.32 1.058 10.067 1.277l.006.001h.004c1.204.07 2.435.118 3.692.14a79.175 79.175 0 0 0 3.521-.004 91.66 91.66 0 0 0 3.439-.138l.012.003c.008 0 .014-.004.022-.004 3.757-.222 7.281-.67 10.262-1.314-.646.338-1.53.687-2.63 1.027-3.32 1.026-8.622 1.96-15.36 2.177-.2.007-.398.014-.6.019l-.661.013c-.56.01-1.122.017-1.7.017-.77 0-1.516-.011-2.252-.028-.27-.006-.537-.015-.804-.024-.326-.01-.644-.024-.962-.038-6.237-.275-11.159-1.165-14.303-2.136-2.444-.756-3.812-1.56-3.891-2.163.099-.334.997-1.17 4.296-1.98zm-4.306 8.143v-3.68c.71.447 1.61.855 2.667 1.223v4.239l-.508-.198-.01.011c-1.396-.579-2.147-1.147-2.149-1.595zm2.667 9.778v-3.68c.71.446 1.61.854 2.666 1.222v4.256c-1.728-.648-2.664-1.297-2.666-1.798zm41.778 1.798v-4.255c1.056-.368 1.956-.776 2.666-1.223v3.678c0 .5-.938 1.152-2.666 1.8zm2.655-7.948c-.097.602-1.463 1.4-3.89 2.15-3.145.972-8.066 1.862-14.302 2.137-.32.013-.638.027-.963.037A103.05 103.05 0 0 1 40 56c-.77 0-1.517-.012-2.254-.028-.268-.007-.532-.016-.796-.024-.328-.011-.648-.024-.969-.038-6.236-.275-11.157-1.165-14.302-2.137-2.351-.726-3.71-1.497-3.88-2.093.265.092.54.182.821.27a26.194 26.194 0 0 0 1.11.32c.143.038.289.074.434.111 3.238.83 7.37 1.417 11.832 1.681l.004.001h.003a88.94 88.94 0 0 0 4.207.149c.378.007.754.01 1.123.01.49 0 .991-.006 1.499-.015a88.96 88.96 0 0 0 3.828-.144l.008.002c.004 0 .007-.003.011-.003 1.525-.091 3-.222 4.418-.385l.015.003c.02 0 .036-.01.055-.012a64.463 64.463 0 0 0 5.499-.867c2.625-.539 4.897-1.237 6.456-2.101.085-.047.165-.095.246-.142.099-.058.193-.118.284-.178.086-.056.184-.109.263-.165 1.754.626 2.238 1.186 2.296 1.409zm.011-11.607v-4.255c1.057-.368 1.957-.776 2.667-1.223v3.678c-.001.5-.938 1.151-2.667 1.8z"/>
</svg>
