<svg xmlns="http://www.w3.org/2000/svg" width="80" height="80" viewBox="0 0 80 80">
    <path fill="#2EB0FF" fill-rule="evenodd" d="M69.089 21.118c.244.242.244.726.244.726L64.444 41.21c0 .485-.488.969-.977.969l-35.69 4.841c.979 1.695 2.934 2.663 4.89 2.663h27.866c.734 0 1.223.484 1.223 1.21 0 .727-.49 1.211-1.223 1.211h-28.11c-3.912 0-7.578-2.905-8.312-6.778l-5.866-29.534h-6.356c-.733 0-1.222-.484-1.222-1.21 0-.727.489-1.21 1.222-1.21h7.333c.49 0 1.222.483 1.222.968l1.223 6.294H68.11c.489 0 .734.242.978.484zM62.244 40L66.4 22.812H22.155l4.4 21.787L62.245 40zm-30.8 14.525c3.423 0 6.112 2.663 6.111 6.052 0 3.389-2.688 6.052-6.11 6.052-3.423 0-6.112-2.663-6.112-6.052 0-3.39 2.69-6.052 6.111-6.052zm0 9.683c1.956 0 3.667-1.695 3.667-3.631 0-1.937-1.711-3.631-3.667-3.631-1.955 0-3.666 1.694-3.666 3.63 0 1.937 1.71 3.632 3.666 3.632zm24.445-9.683c3.422 0 6.111 2.663 6.111 6.052s-2.689 6.052-6.111 6.052c-3.422 0-6.111-2.663-6.111-6.052 0-3.39 2.689-6.052 6.11-6.052zm0 9.683c1.955 0 3.667-1.695 3.667-3.631 0-1.937-1.711-3.631-3.667-3.631-1.956 0-3.667 1.694-3.667 3.63 0 1.937 1.711 3.632 3.667 3.632z"/>
</svg>
