<svg xmlns="http://www.w3.org/2000/svg" width="80" height="80" viewBox="0 0 80 80">
    <path fill="#2EB0FF" fill-rule="evenodd" d="M66.932 55.48l-6.54-6.54L42.545 11.81a1.222 1.222 0 0 0-1.648-.564 1.26 1.26 0 0 0-.572 1.674l8.962 18.624-4.689 4.689-11.82-14.95a1.266 1.266 0 0 0-1.752-.227 1.206 1.206 0 0 0-.225 1.71L42.748 37.96l-4.813 4.812-15.193-11.946a1.206 1.206 0 0 0-1.71.224 1.266 1.266 0 0 0 .227 1.753l14.949 11.82-4.689 4.689-18.624-8.963a1.26 1.26 0 0 0-1.673.572 1.222 1.222 0 0 0 .564 1.648l37.131 17.848 6.54 6.54c1.604 1.603 3.578 2.344 5.676 2.344 2.097 0 4.072-.74 5.676-2.345 3.33-3.208 3.33-8.267.123-11.475zm-13.326-.37l-4.195-3.332 2.344-2.344 3.332 4.195-1.481 1.48zm-1.728 1.727l-1.48 1.48-5.06-2.467 2.345-2.344 4.195 3.331zm5.06-4.935l-3.332-4.195 2.344-2.345 2.468 5.06-1.48 1.48zm-6.54-18.015l4.319 9.007-2.715 2.715-5.923-7.527 4.319-4.195zm-6.046 6.17l5.922 7.526-2.837 2.838-7.527-5.923 4.442-4.442zm-6.046 6.046l7.526 5.922-2.714 2.715-9.008-4.319 4.196-4.318zm26.898 19.125c-2.22 2.22-5.676 2.22-7.897 0l-5.059-5.06 7.897-7.896 5.06 5.059c2.22 2.097 2.22 5.676 0 7.897z"/>
</svg>
