<svg xmlns="http://www.w3.org/2000/svg" width="80" height="80" viewBox="0 0 80 80">
    <path fill="#2EB0FF" fill-rule="evenodd" d="M55.531 21.258c4.629 0 8.416 3.738 8.416 8.307 0 2.492-1.052 4.672-2.84 6.23V61.96c0 5.4-3.998 7.268-7.365 7.268H32.596c-3.261 0-7.049-1.869-7.259-6.749h-3.051c-3.998 0-6.207-2.284-6.207-6.126V45.659c0-3.946 2.314-6.126 6.207-6.126h3.051V36.21c-2.63-1.869-4.419-4.984-4.419-8.514 0-5.711 4.524-10.384 10.205-10.384h.105c1.894-4.05 5.997-6.645 10.626-6.645 6.207 0 11.362 4.776 11.783 10.798.631-.103 1.263-.207 1.894-.207zM25.337 55.835v-9.968H24.18c-1.263 0-1.789.519-1.789 1.869v6.23c0 1.35.526 1.869 1.789 1.869h1.157zm0-12.045v-2.284h-2.946c-2.84 0-4.103 1.35-4.103 4.05V56.25c0 2.804 1.263 4.05 3.998 3.946h3.051v-2.284H24.18c-2.42 0-3.893-1.454-3.893-3.946v-6.23c0-2.492 1.473-3.946 3.893-3.946h1.157zm33.666 18.067V37.145c-.947.415-2 .623-3.051.726v2.077c0 3.115-2.525 5.607-5.681 5.607s-5.681-2.492-5.681-5.607v-2.907c-2.63 1.35-5.892 1.142-8.417-.416-1.578.935-3.261 1.35-5.05 1.35-1.262 0-2.525-.311-3.682-.727v24.61c0 4.672 3.682 5.191 5.26 5.191h21.041c1.579 0 5.26-.52 5.26-5.192zM55.53 35.795a6.312 6.312 0 0 0 6.312-6.334c0-3.427-2.84-6.23-6.312-6.23-.842 0-1.683.207-2.525.519-.42.104-.736.104-1.052-.104-.316-.208-.42-.623-.42-.934v-.208-.312c0-5.295-4.314-9.552-9.68-9.552-3.892 0-7.47 2.388-8.942 6.022-.21.415-.631.623-1.052.623h-.737c-4.418 0-8.1 3.738-8.1 8.307 0 4.568 3.576 8.307 8.1 8.307 1.578 0 3.051-.416 4.419-1.35.42-.312.947-.312 1.262 0 1.158.934 2.525 1.35 3.893 1.35 1.578 0 3.05-.52 4.208-1.558.21-.208.526-.312.737-.312.105 0 .315 0 .42.104.421.104.632.52.632.935v4.88c0 1.973 1.578 3.53 3.577 3.53 1.999 0 3.577-1.557 3.577-3.53v-3.115c0-.208.105-.52.315-.727.21-.207.526-.311.842-.311h.526zm-1.789 11.733c.632 0 1.053.415 1.053 1.038v13.291c0 .623-.421 1.039-1.053 1.039-.63 0-1.052-.416-1.052-1.039v-13.29c0-.624.421-1.039 1.052-1.039zm-6.943 0c.526 0 1.052.415 1.052 1.038v13.291c0 .623-.42 1.039-1.052 1.039-.631 0-1.052-.416-1.052-1.039v-13.29c0-.624.42-1.039 1.052-1.039zm-7.049-6.75c.526 0 1.052.52 1.052 1.04v19.935c0 .623-.42 1.039-1.052 1.039-.631 0-1.052-.416-1.052-1.039V41.817c0-.623.42-1.038 1.052-1.038zm-7.049 0c.632 0 1.052.52 1.052 1.04v19.935c0 .623-.42 1.039-1.052 1.039-.63 0-1.052-.416-1.052-1.039V41.817c0-.623.421-1.038 1.052-1.038z"/>
</svg>
