<svg xmlns="http://www.w3.org/2000/svg" width="80" height="80" viewBox="0 0 80 80">
    <path fill="#2EB0FF" fill-rule="evenodd" d="M58.608 34.535c-1.843 0-3.62.395-5.265 1.053l-2.238-4.345v-6.914a.99.99 0 0 0-.658-.922l-5.264-1.975c-.527-.198-1.053.066-1.25.593-.198.526.065 1.053.591 1.25l4.673 1.712v5.597H29.915v-1.91h2.369c.526 0 .987-.46.987-.987 0-.527-.46-.988-.987-.988h-6.12c-.527 0-.988.461-.988.988 0 .527.461.988.987.988h1.777v2.7l-1.908 4.147a12.654 12.654 0 0 0-4.738-.921C13.989 34.6 8 40.527 8 47.9a13.26 13.26 0 0 0 13.294 13.3c6.975 0 12.7-5.465 13.227-12.312H38.8a.938.938 0 0 0 .79-.395L49.92 33.547l1.645 3.095c-3.751 2.238-6.252 6.452-6.252 11.193 0 7.309 5.923 13.3 13.294 13.3a13.26 13.26 0 0 0 13.293-13.3 13.26 13.26 0 0 0-13.293-13.3zM21.294 59.16c-6.252 0-11.32-5.07-11.32-11.325 0-6.255 5.068-11.325 11.32-11.325 1.382 0 2.698.263 3.882.724L20.372 47.44v.066c-.066.132-.066.198-.066.33v.065c0 .132 0 .198.066.33v.065c0 .066 0 .066.066.132 0 .066.066.066.132.132v.065c.065.066.197.132.263.198h.066a.593.593 0 0 0 .329.066H32.48c-.46 5.728-5.265 10.271-11.187 10.271zm1.513-12.312l4.146-8.758a11.244 11.244 0 0 1 5.594 8.758h-9.74zm15.465 0h-3.816c-.33-4.544-2.962-8.428-6.713-10.601l1.777-3.753h18.624l-9.872 14.354zm20.27 12.312c-6.252 0-11.32-5.07-11.32-11.325 0-4.016 2.107-7.506 5.265-9.547l5.2 10.008c.197.33.526.527.855.527.132 0 .329-.066.46-.132.461-.263.659-.856.395-1.317l-5.199-10.008c1.382-.527 2.83-.856 4.344-.856 6.252 0 11.32 5.07 11.32 11.325 0 6.255-5.068 11.325-11.32 11.325z"/>
</svg>
