<svg xmlns="http://www.w3.org/2000/svg" width="80" height="80" viewBox="0 0 80 80">
    <path fill="#2EB0FF" fill-rule="evenodd" d="M70.784 48.86a127.092 127.092 0 0 0-3.585-6.085c.258-.222.515-.447.774-.667a2.732 2.732 0 0 0 .977-1.892c.057-.774-.214-1.544-.764-2.168-1.982-2.25-6.36-6.27-13.603-8.24.095-1.155-.594-2.304-1.782-2.894-3.834-1.906-8.28-2.913-12.858-2.913h-.032c-4.573 0-9.016 1.007-12.848 2.913-1.19.59-1.88 1.74-1.784 2.894-7.243 1.97-11.621 5.99-13.602 8.24-.55.623-.822 1.394-.765 2.168.055.733.402 1.405.976 1.892.26.22.517.444.775.667a127.152 127.152 0 0 0-3.585 6.084 8.473 8.473 0 0 0-.8 6.279 4.715 4.715 0 0 0 3.093 3.274c.51.17 1.038.254 1.565.254a5.076 5.076 0 0 0 3.048-1.025 106.359 106.359 0 0 1 7.125-4.912c.463.265.99.404 1.526.404.418 0 .84-.084 1.24-.257a106.01 106.01 0 0 1 4.774-1.924c.583.468 1.34.728 2.141.675h.002c4.735-.322 9.539-.321 14.278 0a3.096 3.096 0 0 0 2.146-.674c1.6.602 3.203 1.246 4.77 1.923.4.173.823.257 1.24.257.536 0 1.063-.139 1.527-.404 2.439 1.54 4.833 3.189 7.125 4.912a5.076 5.076 0 0 0 3.048 1.026c.527 0 1.055-.084 1.565-.255 1.537-.515 2.665-1.708 3.096-3.284.553-2.104.268-4.33-.803-6.269zM14.73 56.02c-.797.6-1.778.767-2.692.461a2.688 2.688 0 0 1-1.76-1.865c-.42-1.601-.2-3.3.618-4.782a124.833 124.833 0 0 1 3.338-5.682 121.18 121.18 0 0 1 7.335 7.128 108.415 108.415 0 0 0-6.839 4.74zm10.316-5.012a.984.984 0 0 1-1.13-.232l-.001-.001a123.15 123.15 0 0 0-9.187-8.929l-.025-.022a122.94 122.94 0 0 0-1.465-1.263.707.707 0 0 1-.261-.493c-.017-.23.076-.472.263-.683 1.818-2.064 5.83-5.747 12.488-7.584a499.349 499.349 0 0 1 3.855 17.37 108.545 108.545 0 0 0-4.537 1.837zm23.19-2.159c-.094.457-.534.778-1.023.744a107.595 107.595 0 0 0-14.56 0c-.499.03-.93-.28-1.024-.742a501.09 501.09 0 0 0-4.275-19.12c-.089-.362.168-.762.64-.996 3.547-1.763 7.667-2.695 11.92-2.695h.03c4.257 0 8.38.932 11.927 2.696.471.233.728.633.639.996a500.396 500.396 0 0 0-4.274 19.117zm7.696 1.945a.984.984 0 0 1-1.114.214 108.319 108.319 0 0 0-4.537-1.837 498.813 498.813 0 0 1 3.856-17.37c6.658 1.837 10.67 5.52 12.488 7.584.186.211.28.454.262.683a.708.708 0 0 1-.261.494c-.493.417-.982.84-1.468 1.265l-.02.018a123.22 123.22 0 0 0-9.206 8.949zm13.656 3.812a2.693 2.693 0 0 1-1.761 1.875c-.914.306-1.896.138-2.693-.462a108.412 108.412 0 0 0-6.839-4.74 121.184 121.184 0 0 1 7.335-7.127 125.101 125.101 0 0 1 3.338 5.682c.819 1.483 1.038 3.18.62 4.772z"/>
</svg>
