<svg xmlns="http://www.w3.org/2000/svg" width="80" height="80" viewBox="0 0 80 80">
    <path fill="#2EB0FF" fill-rule="evenodd" d="M51.893 27.773a4.787 4.787 0 0 0-1.243-3.214l-6.46-7.148a1.03 1.03 0 0 1-.267-.692v-.534c.593-.324.996-.946.996-1.66v-1.96c0-1.047-.866-1.898-1.93-1.898H37.01c-1.064 0-1.93.851-1.93 1.898v1.96c0 .713.403 1.336.996 1.66v.534c0 .255-.095.501-.267.692l-6.46 7.148a4.788 4.788 0 0 0-1.243 3.214v5.368c0 .757.299 1.446.786 1.96a2.842 2.842 0 0 0-.786 1.96v.98c0 .756.299 1.445.786 1.959a2.842 2.842 0 0 0-.786 1.96v.98c0 .756.299 1.445.786 1.959a2.842 2.842 0 0 0-.786 1.96v.98c0 .756.299 1.445.786 1.959a2.842 2.842 0 0 0-.786 1.96v.98c0 .756.299 1.445.786 1.959a2.842 2.842 0 0 0-.786 1.96v.98c0 .756.299 1.445.786 1.959a2.842 2.842 0 0 0-.786 1.96v2.94c0 2.667 2.207 4.837 4.92 4.837h13.947c2.712 0 4.919-2.17 4.919-4.838v-2.94a2.84 2.84 0 0 0-.786-1.959 2.842 2.842 0 0 0 .786-1.96v-.98a2.84 2.84 0 0 0-.786-1.959 2.842 2.842 0 0 0 .786-1.96v-.98a2.84 2.84 0 0 0-.786-1.959 2.842 2.842 0 0 0 .786-1.96v-.98a2.84 2.84 0 0 0-.786-1.959 2.842 2.842 0 0 0 .786-1.96v-.98A2.84 2.84 0 0 0 51.107 40a2.842 2.842 0 0 0 .786-1.96v-.98a2.84 2.84 0 0 0-.786-1.959 2.842 2.842 0 0 0 .786-1.96v-5.368zM36.949 12.565c0-.034.028-.061.062-.061h5.978c.034 0 .062.027.062.061v1.96a.062.062 0 0 1-.062.06H37.01a.062.062 0 0 1-.062-.06v-1.96zM30.746 25.78l6.46-7.148c.477-.527.74-1.206.74-1.912v-.296h4.109v.296c0 .706.262 1.385.739 1.912l6.46 7.148a3 3 0 0 1 .4.565H30.346c.11-.201.242-.392.399-.565zm19.279 38.717c0 1.654-1.369 3-3.051 3H33.026c-1.682 0-3.05-1.346-3.05-3v-2.94c0-.574.474-1.041 1.058-1.041h17.932c.584 0 1.059.467 1.059 1.041v2.94zm0-6.86c0 .575-.475 1.042-1.059 1.042H31.034a1.051 1.051 0 0 1-1.059-1.041v-.98c0-.574.475-1.041 1.059-1.041h17.932c.584 0 1.059.467 1.059 1.041v.98zm0-4.898c0 .574-.475 1.04-1.059 1.04H31.034a1.051 1.051 0 0 1-1.059-1.04v-.98c0-.574.475-1.041 1.059-1.041h17.932c.584 0 1.059.467 1.059 1.04v.98zm0-4.9c0 .575-.475 1.042-1.059 1.042H31.034a1.051 1.051 0 0 1-1.059-1.041v-.98c0-.574.475-1.041 1.059-1.041h17.932c.584 0 1.059.467 1.059 1.04v.98zm0-4.899c0 .574-.475 1.042-1.059 1.042H31.034a1.051 1.051 0 0 1-1.059-1.042v-.98c0-.573.475-1.04 1.059-1.04h17.932c.584 0 1.059.467 1.059 1.04v.98zm0-4.899c0 .574-.475 1.042-1.059 1.042H31.034a1.051 1.051 0 0 1-1.059-1.042v-.98c0-.573.475-1.04 1.059-1.04h17.932c.584 0 1.059.467 1.059 1.04v.98zm0-4.899c0 .574-.475 1.041-1.059 1.041H31.034a1.051 1.051 0 0 1-1.059-1.04V28.18h20.05v4.96z"/>
</svg>
