<svg xmlns="http://www.w3.org/2000/svg" width="80" height="80" viewBox="0 0 80 80">
    <path fill="#2EB0FF" fill-rule="evenodd" d="M69.177 39.831v-1.339c0-.608-.123-1.216-.123-1.825v-.365c0-.487-.122-.974-.245-1.46 0-.122 0-.244-.122-.366-.123-.608-.245-1.095-.368-1.703-.123-.609-.368-1.217-.49-1.826 0-.121 0-.121-.123-.243-.122-.487-.367-.973-.49-1.46 0-.122-.122-.244-.122-.365-.245-.487-.368-.852-.613-1.34 0-.12-.123-.242-.123-.242l-.735-1.46c-.122-.244-.245-.366-.368-.61-.122-.243-.367-.608-.49-.851-.122-.122-.122-.243-.245-.365l-.367-.487c-3.799-5.476-9.313-9.614-15.807-11.56l-.613-.122h-.122a19.658 19.658 0 0 0-3.676-.73h-.123c-.613-.122-1.225-.122-1.716-.122h-.122c-.613 0-1.226-.122-1.96-.122-.613 0-1.349 0-1.961.122h-.123c-.613 0-1.225.121-1.838.121h-.123c-1.225.122-2.573.487-3.676.73h-.122l-.613.122c-6.494 1.948-12.13 6.085-15.806 11.561l-.368.609c-.122.122-.122.243-.245.365-.245.365-.367.73-.613.973-.122.122-.122.244-.245.487-.245.487-.49.974-.735 1.582 0 .122-.122.122-.122.243-.245.487-.368.974-.613 1.46 0 .123-.123.244-.123.244-.49 1.095-.857 2.312-1.103 3.53l-.367 1.825v.121a19.682 19.682 0 0 0-.368 3.773v1.217c0 7.545 2.818 14.36 7.597 19.592l.49.487.368.365.49.487c.245.243.49.486.735.608s.368.365.613.487c.368.365.735.608 1.225.973.245.122.368.365.613.487s.49.365.735.487c.245.121.49.243.613.486.245.122.49.365.735.487.245.243.613.365.98.487.368.243.736.365 1.103.608l.736.365.735.365.735.365c.245.122.49.244.735.244.368.121.858.243 1.226.365.122 0 .245.121.367.121l.613.244a29.25 29.25 0 0 0 17.767-.609l.613-.243c.123 0 .245-.122.368-.122.367-.121.735-.243 1.103-.486.245-.122.367-.122.612-.244.368-.121.613-.365.98-.486l.736-.365c.367-.244.735-.366 1.103-.609.245-.122.49-.365.735-.487.245-.121.368-.243.613-.365.245-.243.612-.365.857-.608.123-.122.245-.243.368-.243a26.88 26.88 0 0 0 2.818-2.434l.123-.122c.367-.365.612-.608.857-.974.245-.365.613-.608.858-.973l.368-.487c3.676-5.232 6.004-11.56 6.004-18.375zm-7.23 15.09l-.612-2.19 3.553-10.71 1.838-1.216c-.245 5.232-1.96 10.1-4.779 14.116zm-5.881 6.206l-.245.244c-.245.243-.49.365-.736.486-.122.122-.245.244-.367.244-.245.121-.49.365-.735.486-.123.122-.368.244-.49.365-.245.122-.49.244-.613.365-.245.122-.613.366-.858.487-.245.122-.367.243-.612.243-.368.122-.736.366-.98.487h-.123L47.12 61.98l3.308-8.519 9.19.487.98 3.407c-1.715 1.461-3.063 2.678-4.533 3.773zm-11.641.122l-8.087.365-3.799-8.64 2.45-4.868h9.559l3.185 4.381-3.308 8.762zm-13.601 3.772c-.245-.121-.368-.121-.613-.243s-.49-.243-.735-.243c-.123-.122-.368-.122-.49-.244l-.736-.365c-.122 0-.245-.121-.367-.121-.49-.244-1.103-.487-1.593-.852-.123-.122-.368-.244-.49-.244-.245-.121-.49-.243-.735-.486-.123-.122-.368-.244-.49-.365-.245-.122-.49-.365-.736-.487a1.691 1.691 0 0 0-.49-.365c-.245-.122-.49-.365-.735-.487l-.368-.365c-.612-.487-1.225-.973-1.715-1.582l.735-3.529 9.068-.852 3.676 8.275-2.941 2.678s-.123 0-.245-.123zm-17.89-27.015c0-.487.122-.974.122-1.46v-.244c0-.487.123-.974.245-1.339v-.121c.245-1.582.735-3.043 1.225-4.503 0-.122.123-.122.123-.243.123-.365.245-.73.49-1.096 0-.121.123-.243.123-.365.122-.365.367-.608.49-.973.122-.122.122-.244.245-.365.245-.487.49-.852.735-1.217l3.431.121 2.573 8.762-7.597 5.112-2.205-2.07c0 .123 0 0 0 0zm20.34-24.095l1.47-.365h.246c.367-.122.857-.122 1.225-.244h.368c.49 0 .857-.122 1.348-.122h.245a13.938 13.938 0 0 1 3.186 0h.245c.49 0 .857.122 1.347.122h.368c.368 0 .858.122 1.225.244h.368c.49.121.98.243 1.348.243h.123l.857 2.677-7.352 5.355-7.352-5.355.735-2.555zm23.894 11.074l-3.063 8.883-5.27 1.46-7.841-5.72v-5.597l7.597-5.476 8.577 6.45zm5.637.973c.245.365.49.852.735 1.217.123.122.123.243.123.365.123.365.368.73.49.974 0 .121.123.243.123.365.122.365.367.73.49 1.095 0 .122.122.243.122.365.123.365.368.852.49 1.217v.122c.368.973.613 1.947.736 3.042v.122c.122.487.122.852.245 1.339v.365c0 .365.122.73.122 1.217v.243l-2.696 1.947-7.352-5.476 2.941-8.64 3.431.121c-.123-.121 0-.121 0 0zm-3.553 25.556l-9.436-.487-3.308-4.38 2.94-9.128 5.27-1.46 7.597 5.598-3.063 9.857zm-24.017-5.842l-2.818-8.64 7.352-5.354 7.352 5.354-2.819 8.64h-9.067zm-4.289-27.137l7.597 5.476v5.598l-8.21 5.963-5.146-1.217-2.573-9.005 8.332-6.815zm-6.617 18.01l5.76 1.339 2.94 8.883-2.573 4.99-9.313.973-4.534-10.952 7.72-5.233zm36.638-13.142h-1.96l-9.436-7.059-.49-1.46c4.78 1.582 8.823 4.624 11.886 8.519zm-30.634-8.64l-.49 1.46-9.19 7.423-2.328-.122c3.186-3.894 7.23-7.058 12.008-8.762zM12.811 41.17l1.225.973 5.024 12.048-.49 2.312c-3.308-4.381-5.391-9.614-5.76-15.333zm26.958 25.433c-1.961 0-3.922-.243-5.76-.608l2.206-1.947 8.823-.365 2.328 1.825a26.67 26.67 0 0 1-7.597 1.095z"/>
</svg>
