<svg xmlns="http://www.w3.org/2000/svg" width="80" height="80" viewBox="0 0 80 80">
    <path fill="#2EB0FF" fill-rule="evenodd" d="M69.333 48.8c0-1.662-1.27-2.933-2.933-2.933h-1.965c-.347-19.283-10.927-34.852-23.999-35.192a13.124 13.124 0 0 0-.872 0c-13.072.34-23.652 15.91-24 35.192H13.6c-1.662 0-2.933 1.27-2.933 2.933 0 1.317.798 2.387 1.955 2.776V66.4c0 1.662 1.37 2.933 2.934 2.933h1.955c1.565 0 2.934-1.27 2.934-2.933V51.563A2.934 2.934 0 0 0 22.4 48.8c0-1.662-1.271-2.933-2.933-2.933H17.52c.229-12.382 4.794-23.137 11.468-28.859a12.686 12.686 0 0 0-1.7 6.37c0 7.04 5.671 12.71 12.711 12.71s12.711-5.67 12.711-12.71c0-2.324-.618-4.499-1.7-6.37C57.685 22.73 62.25 33.485 62.48 45.867h-1.946c-1.662 0-2.933 1.27-2.933 2.933 0 1.317.798 2.387 1.956 2.776V66.4c0 1.662 1.369 2.933 2.933 2.933h1.956c1.564 0 2.933-1.27 2.933-2.933V51.563a2.934 2.934 0 0 0 1.955-2.763zM18.49 54.667h-3.911v-2.934h3.91v2.934zm0 7.822h-3.911v-5.867h3.91v5.867zm-.978 4.889h-1.955a.98.98 0 0 1-.978-.978v-1.956h3.91V66.4a.98.98 0 0 1-.977.978zM20.444 48.8c0 .587-.39.978-.977.978H13.6c-.587 0-.978-.391-.978-.978s.391-.978.978-.978h5.867c.586 0 .977.391.977.978zm30.312-25.422A10.725 10.725 0 0 1 40 34.133a10.725 10.725 0 0 1-10.756-10.755c0-5.837 4.589-10.55 10.375-10.749.127-.003.254-.007.381-.007s.254.004.381.007a10.723 10.723 0 0 1 10.375 10.749zm14.666 31.289h-3.91v-2.934h3.91v2.934zm0 7.822h-3.91v-5.867h3.91v5.867zm-.978 4.889H62.49a.98.98 0 0 1-.978-.978v-1.956h3.911V66.4a.98.98 0 0 1-.978.978zm1.956-17.6h-5.867c-.586 0-.977-.391-.977-.978s.39-.978.977-.978H66.4c.587 0 .978.391.978.978s-.391.978-.978.978z"/>
</svg>
