<svg xmlns="http://www.w3.org/2000/svg" width="80" height="80" viewBox="0 0 80 80">
    <path fill="#2EB0FF" fill-rule="evenodd" d="M62.762 31.168c4.231 4.223 6.561 9.837 6.561 15.809 0 5.971-2.33 11.585-6.56 15.808-4.231 4.223-9.856 6.548-15.84 6.548-2.39 0-4.722-.372-6.932-1.087a22.408 22.408 0 0 1-6.914 1.087c-12.352 0-22.4-10.029-22.4-22.356 0-12.018 9.55-21.85 21.472-22.337a16.684 16.684 0 0 0-.574-3.63c-.92-3.395-2.759-6.29-5.462-8.603a.923.923 0 0 1-.1-1.304.927.927 0 0 1 1.305-.1c5.825 4.983 6.613 11.256 6.69 13.639a22.416 22.416 0 0 1 10.182 2.92.923.923 0 0 1 .344 1.261.927.927 0 0 1-1.264.343 20.57 20.57 0 0 0-10.193-2.697c-9.26 0-17.106 6.144-19.666 14.562.092.044-.404.925-.404 1.753 0 .83-.03-.001-.045-.002a20.41 20.41 0 0 0-.411 3.267V48c.036 1.116.153 1.861.362 2.926.03-.003.094 1.335.432 1.778a20.417 20.417 0 0 0 2.75 5.806c.041-.005.824 1.046.965 1.297a20.733 20.733 0 0 0 2.249 2.379c-.12-.16.41.32.269.238a20.484 20.484 0 0 0 13.498 5.06c1.366 0 2.717-.133 4.04-.396a22.147 22.147 0 0 1-1.91-1.05l-.162-.1a24.915 24.915 0 0 1-.944-.625l-.072-.05a22.207 22.207 0 0 1-1.282-.975l-.041-.034a21.81 21.81 0 0 1-.745-.64l-.112-.101a22.05 22.05 0 0 1-.28-.26l-.11-.104c-.117-.111-.232-.223-.346-.337l-.028-.027a.92.92 0 0 1 0-1.308l21.371-21.33a20.469 20.469 0 0 0-6.613-9.24.923.923 0 0 1-.149-1.299.927.927 0 0 1 1.301-.149 22.32 22.32 0 0 1 6.9 9.253l7.558-7.544a.928.928 0 0 1 1.31 0zm-3.933 5.233l-9.67 9.651h13.674a15.755 15.755 0 0 0-4.004-9.65zm4.004 11.5H49.16l9.669 9.65a15.755 15.755 0 0 0 4.005-9.65zM47.85 49.21v13.647a15.819 15.819 0 0 0 9.669-3.997l-9.669-9.65zm-1.852 0l-9.67 9.65a15.818 15.818 0 0 0 9.67 3.996V49.21zm15.455 12.268a20.349 20.349 0 0 0 6.018-14.5 20.339 20.339 0 0 0-5.378-13.833l-1.952 1.948a17.608 17.608 0 0 1 4.573 11.885c0 4.742-1.85 9.201-5.21 12.555a17.692 17.692 0 0 1-12.574 5.2H46.916a17.68 17.68 0 0 1-11.9-4.563l-1.953 1.948c.074.068.149.133.224.2l.14.125c.086.075.173.148.26.222l.118.1.269.218.115.092c.09.071.18.141.272.21a21.177 21.177 0 0 0 1.434 1.002 20.387 20.387 0 0 0 4.406 2.107c.027.01.052.022.078.034a20.623 20.623 0 0 0 6.544 1.057 20.433 20.433 0 0 0 14.53-6.007zM36.017 23.493a.925.925 0 0 1-.656-.46 8.288 8.288 0 0 1-.29-7.5 8.314 8.314 0 0 1 5.905-4.644.927.927 0 0 1 .99.456 8.319 8.319 0 0 1 1.05 3.856 9.664 9.664 0 0 1 2.224-.261c1.717 0 3.413.456 4.903 1.32a.924.924 0 0 1 .44.996 9.768 9.768 0 0 1-5.589 6.838c-1.25.55-2.57.828-3.924.828a9.798 9.798 0 0 1-4.904-1.32.913.913 0 0 1-.15-.11zm5.319-5.665l-.032.018a7.924 7.924 0 0 0-3.286 3.672l-.032.078a7.744 7.744 0 0 0-.119.293c-.027.07-.051.143-.076.215l-.06.174-.014.05a7.934 7.934 0 0 0 3.353.746 7.84 7.84 0 0 0 3.177-.672 7.915 7.915 0 0 0 4.348-4.866 7.93 7.93 0 0 0-3.355-.747 7.839 7.839 0 0 0-3.904 1.039zm-4.583-1.52a6.429 6.429 0 0 0-.375 4.333 9.655 9.655 0 0 1 4.284-4.554l.12-.064c.11-.056.22-.11.333-.162l.037-.019a6.458 6.458 0 0 0-.494-2.964 6.455 6.455 0 0 0-3.905 3.43z"/>
</svg>
