<svg xmlns="http://www.w3.org/2000/svg" width="80" height="80" viewBox="0 0 80 80">
    <path fill="#2EB0FF" fill-rule="evenodd" d="M65.488 41.387c-1.702 6.495-5.056 12.384-9.701 17.029-4.645 4.645-10.534 8-17.03 9.701-6.271 1.643-13.14 1.765-19.86.351a9.06 9.06 0 0 1-4.52-2.473 9.053 9.053 0 0 1-2.472-4.519c-1.414-6.72-1.292-13.589.35-19.861 1.703-6.495 5.057-12.384 9.702-17.029s10.534-8 17.029-9.7c6.272-1.644 13.14-1.765 19.861-.352 3.455.727 6.265 3.536 6.992 6.992 1.413 6.72 1.292 13.589-.351 19.861zM47.296 15.935c-1.103.063-2.198.169-3.28.32l20.1 20.101c.153-1.082.259-2.176.322-3.28L47.296 15.936zm11.192.857a43.112 43.112 0 0 0-8.076-.918l14.086 14.087c-.049-2.68-.352-5.39-.917-8.076a6.598 6.598 0 0 0-1.801-3.292 6.598 6.598 0 0 0-3.292-1.801zm-28.04 50.275a39.93 39.93 0 0 0 3.279-.321l-20.1-20.1a39.986 39.986 0 0 0-.321 3.279l17.142 17.142zm-11.192-.857c2.686.565 5.395.868 8.076.917L13.245 53.041c.05 2.68.353 5.39.918 8.076.53 2.517 2.576 4.564 5.093 5.093zm18.808-.328c6.21-1.627 11.61-4.702 16.048-9.141 4.438-4.439 7.514-9.838 9.14-16.048.142-.541.268-1.089.386-1.639l-22.32-22.32c-.55.119-1.097.244-1.638.386-6.21 1.627-11.61 4.702-16.048 9.14-4.439 4.44-7.514 9.839-9.141 16.049a36.991 36.991 0 0 0-.385 1.639l22.319 22.32c.55-.119 1.097-.244 1.639-.386zm9.47-27.684l-1.842-1.842-1.8 1.8 1.842 1.842c.462.462.482 1.193.043 1.631-.439.439-1.169.42-1.631-.043l-1.843-1.842-1.8 1.8 1.842 1.842c.463.463.482 1.193.044 1.632-.439.438-1.17.42-1.632-.043l-1.842-1.843-1.8 1.8 1.842 1.843c.463.462.482 1.193.043 1.631-.438.439-1.169.42-1.631-.043l-1.842-1.842-1.8 1.8 1.842 1.842c.462.463.481 1.193.043 1.632-.439.438-1.17.419-1.632-.044l-1.842-1.842-3.441 3.442c-.439.438-1.17.419-1.632-.044-.462-.462-.482-1.193-.043-1.631l3.441-3.441-1.842-1.843c-.462-.462-.482-1.193-.043-1.631.439-.439 1.169-.42 1.632.043l1.842 1.842 1.8-1.8-1.842-1.842c-.463-.463-.482-1.193-.044-1.632.439-.438 1.17-.419 1.632.044l1.842 1.842 1.8-1.8-1.842-1.842c-.463-.463-.482-1.193-.043-1.632.438-.439 1.169-.42 1.631.043l1.843 1.842 1.8-1.8-1.843-1.842c-.462-.462-.481-1.193-.043-1.631.439-.439 1.17-.42 1.632.043l1.842 1.842 1.8-1.8-1.842-1.842c-.463-.463-.482-1.193-.043-1.632.438-.438 1.169-.42 1.631.043l1.842 1.843 3.442-3.442c.438-.438 1.169-.42 1.631.043.463.463.482 1.193.043 1.632l-3.44 3.441 1.841 1.842c.463.463.482 1.193.043 1.632-.438.439-1.168.42-1.631-.043z"/>
</svg>
