<svg xmlns="http://www.w3.org/2000/svg" width="80" height="80" viewBox="0 0 80 80">
    <path fill="#2EB0FF" fill-rule="evenodd" d="M29.565 32.087l.006-.031a.984.984 0 0 1 1.166-.767.997.997 0 0 1 .773 1.174l-.007.032a.984.984 0 0 1-1.166.767.997.997 0 0 1-.772-1.175zm-4.667 3.129l.007-.032a.984.984 0 0 1 1.166-.767.997.997 0 0 1 .772 1.175l-.006.031a.984.984 0 0 1-1.166.767.997.997 0 0 1-.773-1.174zm1.134 4.353l.006-.031a.984.984 0 0 1 1.167-.767.997.997 0 0 1 .772 1.174l-.006.031a.984.984 0 0 1-1.166.767.997.997 0 0 1-.773-1.174zm11.587-25.774a2.667 2.667 0 0 1 2.066 3.127l-.66 3.337-.074.34-.035.178a87.926 87.926 0 0 1-.343 1.572l-.071.335c-2.316 10.674-7.204 21.088-14.143 30.133l-2.153 10.617 2.881.608a1.014 1.014 0 0 1 .783 1.202 1 1 0 0 1-1.185.771l-7.697-1.623a1.013 1.013 0 0 1-.782-1.201 1 1 0 0 1 1.185-.772l2.878.607 2.162-10.668c-1.42-5.518-2.209-11.202-2.395-16.925l-.074-2.387a77.827 77.827 0 0 1 1.548-15.937l.755-3.796a2.667 2.667 0 0 1 3.166-2.09l12.188 2.572zM23.898 50.107c5.657-7.75 9.797-16.447 12.087-25.396l-14.045 9.42c.09 5.39.746 10.752 1.958 15.976zm13.078-29.732l.632-3.178a1.333 1.333 0 0 0-1.032-1.564l-10.92-2.304a1.333 1.333 0 0 0-1.583 1.045l-.625 3.14a76.041 76.041 0 0 0-1.517 14.211l14.729-9.879c.11-.488.217-.98.316-1.471zm12.205 13.94a.984.984 0 0 1 1.167.766l.006.032a.997.997 0 0 1-.772 1.174.984.984 0 0 1-1.167-.767l-.006-.032a.997.997 0 0 1 .772-1.174zm4.668 3.123a.984.984 0 0 1 1.166.768l.006.031a.997.997 0 0 1-.773 1.174.984.984 0 0 1-1.166-.767l-.006-.032a.997.997 0 0 1 .773-1.174zm-1.139 4.356a.984.984 0 0 1 1.166.767l.006.031a.997.997 0 0 1-.772 1.174.984.984 0 0 1-1.166-.767l-.007-.031a.997.997 0 0 1 .773-1.174zm9.813 23.646l.007-.001a1 1 0 0 1 1.18.78 1.014 1.014 0 0 1-.784 1.194l-7.697 1.625-.007.001a1 1 0 0 1-1.18-.78 1.014 1.014 0 0 1 .785-1.194l2.88-.608-2.153-10.626c-7.199-9.38-11.958-19.517-14.147-30.149-.095-.422-.487-2.331-1.175-5.728a2.667 2.667 0 0 1 2.063-3.138l12.165-2.569a2.667 2.667 0 0 1 3.168 2.096l.744 3.794c1.068 5.277 1.547 10.634 1.513 15.931l.03 2.387a78.2 78.2 0 0 1-2.423 16.967l2.153 10.626 2.878-.608zM42.051 18.926c.415 2.059.987 4.886 1.21 5.947l14.722 9.873a76.052 76.052 0 0 0-1.518-14.206l-.624-3.145a1.333 1.333 0 0 0-1.583-1.044L42.05 18.926zm1.846 8.786c2.185 8.89 6.252 17.423 12.12 25.42a76.234 76.234 0 0 0 1.957-15.98l-4.949-3.319-9.128-6.121zm-6.97 8.312h.99a.99.99 0 0 1 .99.99v.034a.99.99 0 0 1-.99.99h-.99a.99.99 0 0 1-.99-.99v-.035a.99.99 0 0 1 .99-.99zm5.938 5.036a.99.99 0 0 1 .99.99v1.041a.99.99 0 1 1-1.98 0V42.05a.99.99 0 0 1 .99-.99zm-5.95.608l1.581-1.615a.981.981 0 0 1 1.4-.002l.018.018a.99.99 0 0 1 .002 1.388l-1.582 1.614a.981.981 0 0 1-1.4.002l-.018-.018a.99.99 0 0 1-.002-1.387z"/>
</svg>
