<svg xmlns="http://www.w3.org/2000/svg" width="80" height="80" viewBox="0 0 80 80">
    <g fill="#2EB0FF" fill-rule="evenodd">
        <path d="M20.628 25.284l-.02-.007.115.04-.024-.008a5.463 5.463 0 0 1-.07-.025zM24.952 26.59zM23.338 26.149c-.03-.01-.062-.018-.093-.027l.093.027zM24.423 26.45a100.56 100.56 0 0 1-.14-.037l.14.037zM20.392 25.2h.002zM22.824 25.997zM20.97 25.403l-.013-.004a.237.237 0 0 0 .012.004zM25.618 26.757l-.19-.046.19.046zM22.365 25.858l-.042-.013.042.013zM23.832 26.29zM29.754 27.628l-.267-.051.267.05zM31.297 27.88a70.698 70.698 0 0 1-.267-.048l.267.048zM30.407 27.735l-.055-.009.055.01zM26.177 26.892l-.108-.025.108.025zM26.911 27.06l-.232-.051.232.05zM27.498 27.188l-.106-.023.106.023zM28.911 27.472l-.092-.018.092.018zM28.297 27.352l-.263-.052.263.052zM21.634 25.625l.028.01-.028-.01zM21.283 25.51l-.01-.004.053.017-.017-.005-.026-.009zM21.91 25.714l.013.005-.014-.005zM20.621 25.24l.013.007.263.12.007.002c.101.046.208.093.319.141l.005.003c-.22-.097-.423-.188-.607-.272zM21.242 25.47c.003 0 .006.003.01.004.104.065.213.133.326.2v.001l-.336-.206zM20.331 25.162l.256.16.01.007a51.724 51.724 0 0 1-.266-.167zM18.552 60.253zM56.346 29.67zM17.347 59.985zM56.202 29.253zM56.065 28.836c.063.09.125.182.188.274-.063-.092-.125-.184-.188-.274zM17.74 60.084z"/>
        <path d="M60.059 19.416a1.014 1.014 0 0 0-.556-.622.969.969 0 0 0-.82.02c-7.604 3.768-17.527 4.123-18.746 4.153-1.22-.03-11.143-.385-18.747-4.153a.968.968 0 0 0-.82-.02 1.013 1.013 0 0 0-.556.622c-.1.314-8.997 31.277-9.147 39.68-.008.42.234.801.61.963.37.16 9.205 3.91 22.01 3.91a64.46 64.46 0 0 0 3.711-.107c.433-.025.8-.336.908-.768l2.03-8.17 2.031 8.17c.107.432.475.743.908.768 1.226.071 2.475.108 3.71.108h.002c12.805 0 21.64-3.751 22.01-3.91.375-.163.617-.544.61-.964-.208-11.622-8.783-38.54-9.148-39.68zm-38.698 1.73c7.861 3.52 17.443 3.842 18.553 3.868h.045c1.11-.026 10.692-.347 18.553-3.868a316.101 316.101 0 0 1 1.177 3.865c-10.708 4.064-20.978 3.832-27.768 2.899a63.336 63.336 0 0 1-1.589-.24l-.03-.005a60.923 60.923 0 0 1-.658-.112c-.052-.01-.105-.018-.157-.027-.222-.04-.443-.08-.66-.121l-.049-.01a59.473 59.473 0 0 1-.605-.118l-.14-.028c-.21-.042-.418-.085-.622-.129l-.056-.012c-.19-.04-.376-.081-.56-.123l-.123-.027-.582-.135-.058-.013a55.59 55.59 0 0 1-.52-.126l-.101-.025a58.836 58.836 0 0 1-1.083-.28l-.074-.02a58.782 58.782 0 0 1-1-.28l-.049-.013a48.419 48.419 0 0 1-.912-.274l-.023-.007a52.57 52.57 0 0 1-.412-.13l-.007-.002-.031-.01a70.607 70.607 0 0 1-.225-.073h-.002l-.015-.005a47.7 47.7 0 0 1-.674-.226l-.006-.002-.264-.092-.06-.021a33.48 33.48 0 0 1-.242-.086l-.002-.001-.166-.06c.508-1.702.925-3.06 1.197-3.931zM12.678 58.42c.362-7.952 4.353-22.667 6.905-31.38.596.219 1.44.509 2.498.829-3.626 9.6-6.596 28.468-7.037 31.355a41.826 41.826 0 0 1-2.366-.804zm33.908 3.502c-.956 0-1.92-.022-2.874-.066L40.9 50.542a1 1 0 0 0-.963-.77 1 1 0 0 0-.964.77l-2.812 11.314c-.954.044-1.918.066-2.874.066-5.92 0-11.014-.849-14.729-1.74h-.006a58.87 58.87 0 0 1-.808-.2h-.003a52.073 52.073 0 0 1-.361-.094l-.033-.009a57.135 57.135 0 0 1-.375-.099c.245-1.604 3.37-21.814 7.038-31.365a64.258 64.258 0 0 0 7.582 1.515c2.475.343 5.398.596 8.63.596 4.705 0 10.067-.537 15.666-2.113a40.385 40.385 0 0 1 .259.697l.052.143.133.378.014.039c.048.14.097.28.145.424l.001.003c3.397 10.04 6.196 28.122 6.433 29.677a63.454 63.454 0 0 1-16.34 2.148zm18.267-2.706c-.446-2.915-3.42-21.8-7.048-31.38.818-.264 1.64-.55 2.465-.861 2.551 8.704 6.562 23.473 6.925 31.445-.503.19-1.296.473-2.342.796z"/>
    </g>
</svg>
