<svg xmlns="http://www.w3.org/2000/svg" width="80" height="80" viewBox="0 0 80 80">
    <path fill="#2EB0FF" fill-rule="evenodd" d="M71.228 53.354c.522.213.772.8.559 1.314-.522 1.26-1.654 2.276-3.273 2.939-1.173.48-3.016.94-5.767.94-4.276 0-10.75-1.113-20.32-4.988-2.893.45-6.156.747-9.734.747-14.43 0-23.76-4.829-24.15-5.035a1.009 1.009 0 0 1-.543-.89c0-13.362 11.077-24.232 24.693-24.233 13.384 0 24.315 10.505 24.683 23.554l13.852 5.652zM28.112 26.628c-10.09 2.044-17.748 10.699-18.043 21.128 1.441.665 5.634 2.427 11.76 3.547.108-6.967 1.14-13.486 2.934-18.47.955-2.654 2.09-4.741 3.35-6.205zm-4.228 25.014a60.757 60.757 0 0 0 17.618.002 71.722 71.722 0 0 0-.462-7.418 1.016 1.016 0 0 1 .907-1.119 1.027 1.027 0 0 1 1.14.89c.274 2.362.432 4.816.47 7.309 6.134-1.12 10.321-2.883 11.76-3.55-.294-10.424-7.944-19.075-18.027-21.124 2.242 2.608 4.064 7.176 5.184 13.256.101.55-.27 1.076-.83 1.175a1.025 1.025 0 0 1-1.197-.815c-1.552-8.42-4.668-14.078-7.754-14.078-2.127 0-4.31 2.674-5.988 7.337-1.747 4.855-2.742 11.267-2.821 18.135zm43.837 4.1c.656-.27 1.186-.603 1.573-.988l-12.896-5.261c-1.214.583-4.801 2.164-10.194 3.357 13.484 4.977 19.485 3.723 21.517 2.891zM31.096 23.474a1.02 1.02 0 0 1-1.03-1.011c0-.558.461-1.011 1.03-1.011h3.194c.569 0 1.03.453 1.03 1.01a1.02 1.02 0 0 1-1.03 1.012h-3.194z"/>
</svg>
