<svg xmlns="http://www.w3.org/2000/svg" width="80" height="80" viewBox="0 0 80 80">
    <path fill="#2EB0FF" fill-rule="evenodd" d="M17.758 53.74c-6.737 0-11.003-4.892-11.003-12.628 0-7.668 4.317-12.61 11.003-12.61 5.315 0 9.36 3.232 10.14 8.107h-3.082c-.778-3.199-3.571-5.298-7.058-5.298-4.774 0-7.871 3.86-7.871 9.801 0 5.992 3.064 9.818 7.888 9.818 3.588 0 6.161-1.727 7.041-4.706h3.081c-1.117 4.824-4.74 7.516-10.14 7.516zm19.077-2.675c2.826 0 4.908-1.913 4.908-4.418v-1.405l-4.553.288c-2.607.152-3.96 1.117-3.96 2.793 0 1.608 1.404 2.742 3.605 2.742zm-.66 2.522c-3.572 0-5.942-2.15-5.942-5.264 0-3.03 2.32-4.824 6.619-5.078l4.891-.288v-1.456c0-2.166-1.421-3.351-3.977-3.351-2.015 0-3.521 1.032-3.86 2.674h-2.81c.085-2.996 2.98-5.264 6.72-5.264 4.181 0 6.873 2.217 6.873 5.687v12.086h-2.793v-3.03h-.068c-.999 1.947-3.2 3.284-5.654 3.284zM56.977 35.56c4.486 0 7.532 3.588 7.532 8.971s-3.03 8.972-7.464 8.972c-2.506 0-4.503-1.1-5.603-3.03h-.068v8.734H48.43V35.729h2.793v2.86h.067c1.033-1.827 3.25-3.03 5.688-3.03zm-.576 15.336c3.064 0 5.095-2.505 5.095-6.365 0-3.842-2.03-6.364-5.095-6.364-2.996 0-5.044 2.59-5.044 6.364 0 3.792 2.048 6.365 5.044 6.365zm13.559 2.607a1.908 1.908 0 0 1-1.93-1.93c0-1.1.847-1.93 1.93-1.93 1.1 0 1.93.83 1.93 1.93 0 1.083-.83 1.93-1.93 1.93z"/>
</svg>
