<svg xmlns="http://www.w3.org/2000/svg" width="80" height="80" viewBox="0 0 80 80">
    <path fill="#2EB0FF" fill-rule="evenodd" d="M64.34 55.558a4.886 4.886 0 0 1 4.88 4.88v3.903a4.885 4.885 0 0 1-4.88 4.88H47.331a8.822 8.822 0 0 1-7.387-4.058 8.83 8.83 0 0 1-7.388 4.057h-17.01a4.885 4.885 0 0 1-4.878-4.879v-3.903a4.885 4.885 0 0 1 4.879-4.88h18.122c.259-.001.517-.037.766-.107L14.917 20.853a1.965 1.965 0 0 1-2.04-.95l-1.95-3.38-.006-.01a1.97 1.97 0 0 1 .722-2.66l5.075-2.927a1.95 1.95 0 0 1 2.667.729l1.949 3.365c.38.66.34 1.481-.098 2.104l18.708 30.815 18.708-30.82a1.952 1.952 0 0 1-.098-2.102l1.952-3.373a1.915 1.915 0 0 1 1.171-.905 1.957 1.957 0 0 1 1.493.187l5.074 2.928a1.973 1.973 0 0 1 .724 2.658L67.01 19.9a1.958 1.958 0 0 1-2.04.951L45.458 55.453c.248.07.504.105.761.105H64.34zm-3.776 1.952H52.03l2.843 8.533 5.69-8.533zm.178-40.071L41.086 49.818l2.62 4.317c.042.069.102.122.15.186l19.84-35.183a.976.976 0 0 1 1.32-.375l.283.156 1.97-3.371-5.076-2.928-1.945 3.376.138.086a.975.975 0 0 1 .356 1.357zM27.856 57.51h-8.534l5.69 8.533 2.844-8.533zm-15.237 6.831a2.927 2.927 0 0 0 2.928 2.928h7.936l-6.506-9.759h-1.43a2.928 2.928 0 0 0-2.928 2.928v3.903zm25.822-.428l.38-.681-3.415-6.059a4.79 4.79 0 0 1-1.737.337h-3.757l-3.253 9.759h5.897a6.872 6.872 0 0 0 5.885-3.356zm3.017.017a6.863 6.863 0 0 0 5.873 3.339h5.897l-3.252-9.759h-3.757a4.878 4.878 0 0 1-2.59-.763l-.017-.007c-.008-.005-.012-.017-.02-.017a4.91 4.91 0 0 1-1.554-1.576L19.145 17.44a.977.977 0 0 1 .356-1.357l.156-.088-1.963-3.374-5.075 2.928 1.952 3.376.3-.156a.975.975 0 0 1 1.322.37L41.458 63.93zm25.81.411v-3.903a2.928 2.928 0 0 0-2.928-2.928h-1.43l-6.506 9.759h7.936a2.928 2.928 0 0 0 2.928-2.928zM27.258 17.5c0-3.83 5.571-6.831 12.686-6.831 7.114 0 12.686 3.001 12.686 6.831v4.88c0 3.83-5.572 6.83-12.686 6.83-7.115 0-12.687-3-12.687-6.83v-4.88zm12.686 9.759c6.325 0 10.734-2.572 10.734-4.88v-1.202c-2.227 1.907-6.157 3.154-10.734 3.154-4.578 0-8.508-1.247-10.735-3.154v1.203c0 2.307 4.41 4.879 10.735 4.879zm10.734-9.759c0-2.308-4.409-4.88-10.734-4.88-6.326 0-10.735 2.572-10.735 4.88s4.41 4.88 10.735 4.88c6.325 0 10.734-2.572 10.734-4.88z"/>
</svg>
