<svg xmlns="http://www.w3.org/2000/svg" width="80" height="80" viewBox="0 0 80 80">
    <path fill="#2EB0FF" fill-rule="evenodd" d="M60.723 13.743c-.445-.181-11.014-4.353-19.238.044-6.517 3.487-17.955.871-20.879.114v-2.257a.973.973 0 0 0-.97-.977.973.973 0 0 0-.97.977v2.934c0 .013.007.025.008.039 0 .012-.007.021-.007.033v53.706c0 .54.433.977.97.977.536 0 .97-.437.97-.977v-23.1c2.203.554 7.007 1.595 11.992 1.595 3.45 0 6.982-.5 9.795-2.003 7.42-3.97 17.509.004 17.61.044.3.121.637.084.904-.1a.978.978 0 0 0 .425-.809V14.65c0-.4-.241-.759-.61-.907zm-1.33 28.863c-3.16-1.015-11.292-3.027-17.908.513-6.516 3.487-17.95.872-20.879.115V15.922c3.736.94 14.915 3.269 21.788-.408 6.367-3.405 14.699-.963 17-.176v27.268z"/>
</svg>
