<svg xmlns="http://www.w3.org/2000/svg" width="80" height="80" viewBox="0 0 80 80">
    <path fill="#2EB0FF" fill-rule="evenodd" d="M66.311 10.932a1.045 1.045 0 0 0-.825-.257l-32.418 4.279c-.521.069-.911.52-.911 1.057v37.987c-1.91-2.341-4.943-3.865-8.366-3.865-5.766 0-10.458 4.306-10.458 9.6s4.692 9.6 10.458 9.6 10.457-4.306 10.457-9.6c0-.247-.02-.49-.04-.732.013-.07.04-.133.04-.205V27.859l30.327-4.003V43.33c-1.91-2.34-4.943-3.863-8.366-3.863-5.766 0-10.457 4.306-10.457 9.6s4.69 9.6 10.457 9.6c5.714 0 10.367-4.23 10.45-9.458 0-.014.008-.026.008-.04V11.733c0-.307-.13-.6-.356-.8zM23.791 67.2c-4.613 0-8.366-3.35-8.366-7.467 0-4.116 3.753-7.466 8.366-7.466 4.613 0 8.366 3.35 8.366 7.466 0 4.117-3.753 7.467-8.366 7.467zm32.418-10.667c-4.613 0-8.366-3.35-8.366-7.466 0-4.117 3.753-7.467 8.366-7.467 4.613 0 8.366 3.35 8.366 7.467 0 4.116-3.753 7.466-8.366 7.466zM34.25 25.708v-8.76l30.326-4.002v8.759l-30.327 4.003z"/>
</svg>
