<svg xmlns="http://www.w3.org/2000/svg" width="80" height="80" viewBox="0 0 80 80">
    <path fill="#2EB0FF" fill-rule="evenodd" d="M70.742 35.355c.647 0 1.171.513 1.17 1.146 0 .634-.523 1.147-1.17 1.147h-1.49c.255 1.13.384 2.372.384 3.719 0 6.57-5.458 11.915-12.166 11.915-4.248 0-8.356-1.897-11.568-5.342-2.81-3.014-4.556-6.924-4.556-10.202 0-.283 0-.559.002-.827a6.126 6.126 0 0 0-1.392-.159c-.474 0-.94.053-1.39.159l.001.827c0 3.278-1.746 7.187-4.556 10.202-3.212 3.445-7.32 5.342-11.567 5.342-6.709 0-12.167-5.345-12.167-11.915 0-1.347.129-2.588.384-3.72H9.17c-.647 0-1.171-.512-1.171-1.146 0-.633.524-1.146 1.17-1.146h2.25a9.5 9.5 0 0 1 1.492-2.347c2.06-2.36 5.267-3.556 9.532-3.556H57.47c4.265 0 7.472 1.196 9.531 3.556a9.504 9.504 0 0 1 1.492 2.347h2.25zm-38.46 11.039c2.433-2.61 3.944-5.926 3.944-8.656 0-3.759-.112-4.69-1.212-5.216-1.626-.776-5.513-.776-12.57-.776-6.611 0-9.825 3.147-9.825 9.62 0 5.307 4.407 9.623 9.825 9.623 3.582 0 7.075-1.632 9.838-4.595zm7.674-11.935c.5 0 .993.044 1.476.128.105-1.143.34-2.09.868-2.842h-4.686c.527.752.763 1.699.868 2.842a8.546 8.546 0 0 1 1.474-.128zm17.514 16.53c5.417 0 9.825-4.317 9.825-9.622 0-6.475-3.214-9.622-9.825-9.622-7.057 0-10.944 0-12.57.777-1.1.525-1.212 1.457-1.212 5.216 0 2.73 1.511 6.046 3.944 8.656 2.762 2.963 6.256 4.595 9.838 4.595zM26.203 35.073a1.13 1.13 0 0 1 0 1.622l-7.486 7.328a1.18 1.18 0 0 1-.828.335c-.3 0-.6-.112-.828-.336a1.13 1.13 0 0 1 0-1.621l7.486-7.328a1.188 1.188 0 0 1 1.656 0zm2.063 3.65a1.188 1.188 0 0 1 1.656 0 1.13 1.13 0 0 1 0 1.622l-5.615 5.497a1.18 1.18 0 0 1-.828.336c-.3 0-.6-.112-.828-.336a1.13 1.13 0 0 1 0-1.622l5.615-5.497zm30.868-3.65a1.13 1.13 0 0 1 0 1.622l-7.487 7.328a1.18 1.18 0 0 1-.827.335c-.3 0-.6-.111-.828-.336a1.13 1.13 0 0 1 0-1.621l7.486-7.328a1.188 1.188 0 0 1 1.656 0zm2.063 3.65a1.188 1.188 0 0 1 1.656 0 1.13 1.13 0 0 1 0 1.622l-5.615 5.497a1.18 1.18 0 0 1-.828.336c-.3 0-.599-.112-.828-.336a1.13 1.13 0 0 1 0-1.622l5.615-5.497z"/>
</svg>
