<svg xmlns="http://www.w3.org/2000/svg" width="80" height="80" viewBox="0 0 80 80">
    <path fill="#2EB0FF" fill-rule="evenodd" d="M63.83 64.364L49.06 22.338C47.724 18.545 44.087 16 40 16s-7.726 2.545-9.06 6.338L16.17 64.364h-4.352a1.152 1.152 0 0 0 0 2.303h56.364a1.152 1.152 0 1 0 0-2.303H63.83zM33.16 23.089c1.005-2.863 3.754-4.786 6.84-4.786s5.835 1.923 6.84 4.786l3.176 9.033H29.984l3.175-9.033zm-3.986 11.338h21.651l4.453 12.667H24.722l4.452-12.667zM18.65 64.364l5.26-14.967h32.177l5.26 14.967H18.652z"/>
</svg>
