<svg xmlns="http://www.w3.org/2000/svg" width="80" height="80" viewBox="0 0 80 80">
    <path fill="#2EB0FF" fill-rule="evenodd" d="M61.471 39.078c4.3 0 7.817 3.445 7.817 7.655v9.57c0 4.21-3.518 7.656-7.816 7.656H18.483c-4.3 0-7.816-3.445-7.816-7.656v-9.57c0-4.21 3.517-7.655 7.816-7.655h4.9c.348-12.763 7.633-22.968 16.594-22.968 9.438 0 17.2 10.205 17.571 22.968h3.923zM39.977 18.024c-7.914 0-14.264 9.379-14.655 21.054h1.954c.293-10.431 5.96-19.14 12.701-19.14 7.328 0 13.287 8.517 13.678 19.14h1.954c-.39-11.675-7.23-21.054-15.632-21.054zM29.23 40.992v21.053H51.7V40.992H29.23zm.017-1.914h22.438c-.322-9.603-5.466-17.226-11.708-17.226-5.573 0-10.416 7.962-10.73 17.226zM12.62 56.303c0 3.158 2.638 5.742 5.862 5.742h4.885V40.992h-4.885c-3.224 0-5.862 2.583-5.862 5.741v9.57zm12.7 5.742h1.955V40.992h-1.954v21.053zm28.334 0h1.954V40.992h-1.954v21.053zm13.679-5.742v-9.57c0-3.158-2.638-5.741-5.863-5.741h-3.908v21.053h3.908c3.225 0 5.863-2.584 5.863-5.742zm-23.449-9.57c2.15 0 3.908 1.723 3.908 3.828v1.914c0 2.106-1.758 3.828-3.908 3.828H36.07c-2.15 0-3.908-1.722-3.908-3.828v-1.914c0-2.105 1.759-3.828 3.908-3.828h7.816zm1.954 5.742v-1.914c0-1.052-.88-1.914-1.954-1.914H36.07c-1.075 0-1.954.862-1.954 1.914v1.914c0 1.053.88 1.914 1.954 1.914h7.816c1.075 0 1.954-.861 1.954-1.914z"/>
</svg>
