<svg xmlns="http://www.w3.org/2000/svg" width="80" height="80" viewBox="0 0 80 80">
    <path fill="#2EB0FF" fill-rule="evenodd" d="M66.978 32.66a9.317 9.317 0 0 1-2.695-.605l-1.907-1.07a7.092 7.092 0 0 1-1.679-1.832l-.32-.531c-1.703-2.869-4.79-4.569-8.09-4.569H38.34c-2.662 0-5.217 1.169-7.027 3.188l-1.49 1.487c-2.768 3.081-6.494 5.1-10.646 5.632l-6.494.85C10.023 35.635 8 37.866 8 40.522v4.781c0 2.975 2.342 5.313 5.323 5.313h4.35c.51 3.005 3.145 5.313 6.296 5.313 3.15 0 5.785-2.308 6.296-5.313H51.74c.511 3.005 3.146 5.313 6.297 5.313 3.15 0 5.785-2.308 6.296-5.313h2.22a5.407 5.407 0 0 0 5.43-5.206v-7.438c0-2.762-2.236-5.1-5.004-5.312zm-43.01 21.144c-2.341 0-4.257-1.913-4.257-4.25 0-2.338 1.916-4.25 4.258-4.25s4.258 1.912 4.258 4.25c0 2.337-1.916 4.25-4.258 4.25zm34.068 0c-2.342 0-4.259-1.913-4.259-4.25 0-2.338 1.917-4.25 4.259-4.25 2.342 0 4.258 1.912 4.258 4.25 0 2.337-1.916 4.25-4.258 4.25zm11.71-8.5c0 1.806-1.384 3.187-3.194 3.187h-2.22a6.414 6.414 0 0 0-3.673-4.745c-.043-.02-.084-.039-.127-.057l-.081-.033a6.044 6.044 0 0 0-.209-.083l-.057-.02a6.263 6.263 0 0 0-.236-.08l-.052-.016a6.128 6.128 0 0 0-.245-.07l-.054-.014c-.081-.02-.163-.039-.245-.056a6.302 6.302 0 0 0-.302-.056l-.071-.012a6.261 6.261 0 0 0-.234-.03l-.08-.009a6.44 6.44 0 0 0-.237-.018l-.078-.006a6.459 6.459 0 0 0-.631 0l-.079.006a6.44 6.44 0 0 0-.237.018l-.08.01a6.533 6.533 0 0 0-.234.03l-.071.01a6.55 6.55 0 0 0-.24.044l-.062.013a6.331 6.331 0 0 0-.244.056l-.055.014a6.13 6.13 0 0 0-.245.07l-.051.016c-.08.025-.159.052-.237.08l-.057.02c-.07.027-.14.054-.209.083l-.08.033c-.043.018-.085.038-.127.057a6.414 6.414 0 0 0-3.673 4.745H30.265a6.414 6.414 0 0 0-3.672-4.744c-.043-.02-.085-.04-.128-.058l-.08-.033a6.62 6.62 0 0 0-.21-.083l-.056-.02a6.346 6.346 0 0 0-.237-.08l-.051-.016a6.345 6.345 0 0 0-.245-.07l-.055-.014c-.08-.02-.162-.04-.244-.056a6.302 6.302 0 0 0-.302-.056l-.072-.012a6.26 6.26 0 0 0-.234-.03l-.08-.01a6.44 6.44 0 0 0-.236-.017l-.079-.006a6.458 6.458 0 0 0-.63 0l-.079.006a6.44 6.44 0 0 0-.237.018c-.027.002-.053.006-.08.01a6.533 6.533 0 0 0-.234.029l-.071.012c-.08.012-.16.027-.24.043l-.062.013a6.284 6.284 0 0 0-.245.056l-.054.014a6.408 6.408 0 0 0-.245.07l-.052.016a6.34 6.34 0 0 0-.236.08l-.057.02c-.07.026-.14.054-.209.083-.027.01-.054.021-.08.033-.043.018-.085.038-.128.057a6.414 6.414 0 0 0-3.673 4.745h-4.349c-1.81 0-3.194-1.381-3.194-3.188v-4.781c0-1.594 1.171-2.975 2.768-3.081l6.494-.85a18.8 18.8 0 0 0 12.03-6.27l1.49-1.7c1.384-1.593 3.3-2.443 5.43-2.443h13.946c2.555 0 4.897 1.381 6.175 3.4l.319.531a9.069 9.069 0 0 0 3.069 3.056c.1.086.203.148.32.187a10.768 10.768 0 0 0 4.595 1.326c1.704.106 2.981 1.488 2.981 3.188v7.437z"/>
</svg>
