<svg xmlns="http://www.w3.org/2000/svg" width="80" height="80" viewBox="0 0 80 80">
    <path fill="#2EB0FF" fill-rule="evenodd" d="M62.5 63.94H17.44c-3.735 0-6.773-2.97-6.773-6.622V30.464c0-3.652 3.038-6.621 6.773-6.621h9.195l.804-2.655c.329-1.452 1.687-2.518 3.284-2.518H49.22c1.552 0 2.926 1.06 3.29 2.532l.02.09.734 2.55h9.239c3.735 0 6.773 2.97 6.773 6.622v26.854c-.001 3.652-3.04 6.622-6.774 6.622zM17.44 26.05c-2.49 0-4.516 1.98-4.516 4.414v26.854c0 2.435 2.026 4.414 4.516 4.414H62.5c2.491 0 4.516-1.98 4.516-4.414V30.464c0-2.434-2.025-4.414-4.515-4.414H51.553l-1.236-4.31a1.129 1.129 0 0 0-1.1-.864H30.723c-.532 0-.983.355-1.1.865l-1.304 4.309H17.44zm22.532 31.218c-7.9 0-14.329-6.282-14.329-14.005 0-7.724 6.428-14.007 14.33-14.007 7.898 0 14.324 6.284 14.324 14.007 0 7.722-6.426 14.005-14.325 14.005zm0-25.806c-6.656 0-12.07 5.293-12.07 11.8 0 6.506 5.414 11.798 12.07 11.798 6.655 0 12.068-5.293 12.068-11.798 0-6.507-5.415-11.8-12.068-11.8zm21.071-1.316c-1.151 0-2.082.913-2.082 2.037 0 1.124.93 2.036 2.082 2.036 1.15 0 2.082-.912 2.082-2.036-.001-1.124-.932-2.037-2.082-2.037z"/>
</svg>
