<svg xmlns="http://www.w3.org/2000/svg" width="80" height="80" viewBox="0 0 80 80">
    <path fill="#2EB0FF" fill-rule="evenodd" d="M69.219 43.44c0-2.95-2.226-5.422-5.178-5.75a29.531 29.531 0 0 1-4.304-.804c-5.394-1.433-20.063-7.9-24.43-9.847a3.827 3.827 0 0 0-4.29.792l-5.109 5.09a2.011 2.011 0 0 1-2.064.486L18.101 31.5a1.034 1.034 0 0 1-.71-.982v-.544c0-1.041-.85-1.888-1.895-1.888h-1.097a2.874 2.874 0 0 0-2.867 2.683l-.86 13.62a3.791 3.791 0 0 0 .973 2.756v4.268c0 1.04.85 1.888 1.895 1.888h32.27c9.575 0 17.148-1.893 19.959-2.706a2.884 2.884 0 0 0 1.773-1.47l1.58-3.15a.908.908 0 0 0 .096-.41h.001V43.44zm-9.954-4.788c1.48.393 3.02.68 4.572.853.116.013.23.031.343.054-.332.107-.71.222-1.142.343-1.831.513-4.976 1.23-9.564 1.735a3.865 3.865 0 0 0-2.113.912l-1.36 1.172a.924.924 0 0 0-.209-.042c-2.468-.189-5.055-.454-7.62-.757l7.007-4.183c3.104.027 5.2-.4 6.373-1.291 1.451.522 2.723.94 3.713 1.204zm-25.822 3.101a373.77 373.77 0 0 1-2.802-.425l6-3.581c.422-.253.92-.344 1.4-.256.673.122 1.33.234 1.974.339l-6.572 3.923zm9.437-3.503c1.052.136 2.056.244 3.007.324l-6.67 3.982c-.98-.127-1.95-.257-2.898-.39l6.56-3.916zm5.206 7.123l-2.506 2.16c-3.055-.081-5.817-.265-8.51-.443-3.472-.231-7.06-.469-11.255-.488l-2.591-4.648c4.418.775 15.281 2.584 24.862 3.419zM13.36 30.883a1.04 1.04 0 0 1 1.037-.971h1.097c.034 0 .061.027.061.06v.545a2.86 2.86 0 0 0 1.964 2.716l5.744 1.908a3.84 3.84 0 0 0 3.94-.927l5.11-5.091a2.002 2.002 0 0 1 2.243-.417l1.116.497-.928 1.004a.912.912 0 0 0 .675 1.532c.247 0 .494-.099.674-.295l1.348-1.46 1.57.688-.787.851a.912.912 0 0 0 .675 1.532c.247 0 .494-.099.675-.295l1.214-1.315 1.577.68-.66.714a.912.912 0 0 0 .674 1.532c.247 0 .494-.099.675-.295l1.098-1.19c.525.223 1.055.447 1.586.67l-.553.6a.912.912 0 0 0 .674 1.531c.248 0 .494-.099.675-.295l1.004-1.087c1.936.8 3.854 1.573 5.62 2.25-2.605.682-7.893.39-14.79-.862a3.865 3.865 0 0 0-2.672.486l-7.872 4.7a339.18 339.18 0 0 1-5.903-1.013 9.724 9.724 0 0 0-4.247-3.111l-4.577-1.71.263-4.163zm-.859 13.61l.476-7.542 4.053 1.515a7.884 7.884 0 0 1 4.124 3.541l2.561 4.593h-9.199a2.002 2.002 0 0 1-1.463-.626 1.983 1.983 0 0 1-.552-1.48zm53.4 3.813c-.13.258-.364.452-.645.533-2.134.618-9.845 2.634-19.447 2.634H13.54a.061.061 0 0 1-.062-.061v-2.987a.91.91 0 0 0 .062.002h11.734c4.37 0 8.084.247 11.674.485 3.621.241 7.365.49 11.796.49 7.827 0 14.556-1.501 17.797-2.37l-.64 1.274zm1.483-3.415c-2.177.645-9.767 2.684-18.641 2.684l-.409-.002 4.226-3.642c.304-.263.7-.432 1.114-.478 7.508-.825 11.39-2.205 12.632-2.72a3.93 3.93 0 0 1 1.078 2.706v1.452z"/>
</svg>
