<svg xmlns="http://www.w3.org/2000/svg" width="80" height="80" viewBox="0 0 80 80">
    <path fill="#2EB0FF" fill-rule="evenodd" d="M65.397 25.325c-7.001-12.125-21.41-17.357-34.241-13.3a.898.898 0 0 0-.337.103 29.316 29.316 0 0 0-5.492 2.46C11.32 22.675 6.503 40.651 14.59 54.657c5.428 9.399 15.308 14.66 25.455 14.66 4.972 0 10.009-1.263 14.615-3.923 14.007-8.09 18.824-26.065 10.736-40.07zM40.31 39.04c-.039-.078-.076-.158-.14-.225-3.287-3.524-6.737-8.444-8.108-14.456 10.42-4.891 21.174-4.09 31.968 2.39.023.015.05.02.075.033a27.307 27.307 0 0 1 3.354 12.02c-8.401-5.092-17.525-5.012-27.15.238zm21.735-15.471c-10.222-5.214-20.408-5.574-30.33-1.06-.41-2.746-.364-5.699.321-8.834 10.953-3.312 23.057.548 30.009 9.894zm-35.8-7.392c1.23-.71 2.491-1.313 3.774-1.813-1.584 8.947 1.439 17.8 8.81 25.701.074.078.162.13.252.176-1.958 4.614-4.455 8.047-7.52 10.327-.044-.045-.079-.098-.134-.134C22.394 44.363 18 35.25 18.366 23.345c.003-.094-.022-.181-.046-.268a27.337 27.337 0 0 1 7.925-6.901zm-9.722 9.5c.242 11.22 4.76 19.94 13.437 25.96-3.819 2.213-8.43 2.838-13.885 1.912-5.081-8.962-4.568-19.617.448-27.872zm.83 29.908c1.135.135 2.238.21 3.307.21 9.207 0 15.976-5.012 20.157-14.947 6.094-3.41 11.822-4.65 17.304-3.714-.01.046-.033.088-.036.137-.829 13.546-11.172 26.192-24.058 29.417-.07.017-.124.057-.185.088-6.518-1.5-12.475-5.355-16.49-11.19zm36.393 8.223a27.333 27.333 0 0 1-15.897 3.587c11.979-4.583 21.199-16.82 22.057-29.876 2.566.665 5.082 1.807 7.56 3.444-.34 9.149-5.224 17.937-13.72 22.845z"/>
</svg>
