<svg xmlns="http://www.w3.org/2000/svg" width="80" height="80" viewBox="0 0 80 80">
    <path fill="#2EB0FF" fill-rule="evenodd" d="M71.52 37.93l-3.297-7.106c-1.188-2.527-3.768-4.15-6.613-4.157H14.326c-3.493.003-6.322 2.77-6.326 6.185v15.456c.003 1.871 1.553 3.387 3.467 3.39h5.173c.505 2.43 2.69 4.177 5.227 4.177 2.536 0 4.722-1.747 5.226-4.177h25.814c.504 2.43 2.69 4.177 5.226 4.177 2.537 0 4.722-1.747 5.227-4.177h5.675c1.637-.002 2.963-1.299 2.965-2.9V40.09c0-.745-.163-1.482-.48-2.16zM69.209 38l-10.008-.82V32.8l7.192-.879L69.208 38zM21.867 53.784c-1.768 0-3.2-1.401-3.2-3.13 0-1.727 1.432-3.128 3.2-3.128 1.767 0 3.2 1.4 3.2 3.129 0 1.728-1.433 3.129-3.2 3.129zm36.266 0c-1.767 0-3.2-1.401-3.2-3.13 0-1.727 1.433-3.128 3.2-3.128 1.768 0 3.2 1.4 3.2 3.129 0 1.728-1.432 3.129-3.2 3.129zm10.902-4.172H63.36c-.505-2.43-2.69-4.177-5.227-4.177-2.536 0-4.722 1.746-5.226 4.177H27.093c-.504-2.43-2.69-4.177-5.226-4.177-2.537 0-4.722 1.746-5.227 4.177h-5.173c-.736-.001-1.333-.584-1.334-1.304V32.852c.003-2.264 1.878-4.097 4.193-4.1H61.61a5.21 5.21 0 0 1 3.372 1.242l-6.915.845H16.533c-.589 0-1.066.467-1.066 1.042v6.258c0 .576.477 1.043 1.066 1.043H58.09l11.778.96v8.657a.824.824 0 0 1-.832.813zM17.6 37.096v-4.172h7.467v4.172H17.6zm9.6-4.172h8.533v4.172H27.2v-4.172zm10.667 0h7.466v4.172h-7.466v-4.172zm9.6 0h9.6v4.172h-9.6v-4.172z"/>
</svg>
