<svg xmlns="http://www.w3.org/2000/svg" width="80" height="80" viewBox="0 0 80 80">
    <path fill="#2EB0FF" fill-rule="evenodd" d="M66.64 52.257c.112-.243.226-.486.331-.733.105-.244.2-.49.299-.737.068-.171.137-.34.202-.512.101-.27.194-.542.287-.817.053-.153.107-.306.157-.46.091-.28.174-.564.257-.847.045-.154.09-.307.132-.462a28.989 28.989 0 0 0 .33-1.344 25.402 25.402 0 0 0 .271-1.384c.045-.262.09-.525.127-.79.031-.214.057-.43.082-.646.028-.239.059-.477.082-.718.026-.27.043-.541.061-.812.014-.194.03-.385.04-.579a28.67 28.67 0 0 0-.001-2.832c-.01-.194-.026-.385-.04-.579a30.992 30.992 0 0 0-.061-.812c-.023-.24-.054-.48-.082-.718-.026-.216-.052-.431-.082-.646-.038-.265-.082-.527-.127-.79a25.402 25.402 0 0 0-.385-1.879c-.069-.284-.14-.568-.216-.85-.042-.154-.087-.307-.132-.46a26.395 26.395 0 0 0-.257-.847c-.05-.155-.104-.308-.157-.461a32.476 32.476 0 0 0-.287-.817c-.065-.172-.134-.34-.202-.512-.098-.246-.193-.493-.299-.737-.105-.247-.219-.49-.331-.733-.075-.162-.145-.326-.223-.487A29.335 29.335 0 0 0 62 20.606l-.758-.858-.025.028C55.87 14.17 48.34 10.666 40 10.666s-15.87 3.504-21.216 9.11l-.025-.028-.759.86a29.335 29.335 0 0 0-4.417 6.65c-.077.158-.147.32-.22.48-.114.246-.23.491-.336.74-.103.242-.199.488-.296.732-.068.172-.138.343-.203.516-.101.27-.194.542-.287.816-.053.153-.107.306-.157.46-.091.28-.174.564-.257.847-.045.154-.09.307-.132.462a28.989 28.989 0 0 0-.33 1.344 25.402 25.402 0 0 0-.271 1.384c-.045.262-.09.525-.127.79-.031.214-.057.43-.082.646-.028.239-.059.477-.082.718-.026.27-.043.541-.061.812-.014.194-.03.385-.04.579a28.669 28.669 0 0 0 .001 2.832c.01.194.026.385.04.579.018.27.036.542.061.812.023.24.054.48.082.718.026.216.052.431.082.646.038.265.082.527.127.79a25.402 25.402 0 0 0 .385 1.879c.069.284.14.568.216.85.042.154.087.307.132.46.082.285.166.567.257.847.05.155.104.308.157.461.093.274.187.547.287.816.065.173.135.344.203.516.097.244.192.49.297.732.106.249.221.494.334.74.074.16.144.322.22.48a29.335 29.335 0 0 0 4.418 6.65l.758.86.025-.028C24.13 65.83 31.66 69.334 40 69.334s15.87-3.504 21.216-9.11l.025.028.759-.86a29.335 29.335 0 0 0 4.417-6.65c.078-.159.148-.324.223-.485zm.58-10.124c-.009.11-.016.22-.026.33a27.133 27.133 0 0 1-.267 2.068c-.014.084-.03.167-.045.25a27.181 27.181 0 0 1-1.107 4.23l-.048.141a27.184 27.184 0 0 1-.918 2.245c-.28.605-.579 1.201-.902 1.787-.064.116-.133.23-.199.344-.311.545-.64 1.082-.99 1.607l-.23.337c-.328.475-.674.938-1.033 1.394-.074.093-.146.188-.22.28a27.278 27.278 0 0 1-3.433-5.495l1.736-.578a1.012 1.012 0 0 0-.64-1.919l-1.889.63A27.152 27.152 0 0 1 55.95 46.4l2.4-.343a1.011 1.011 0 1 0-.287-2.002l-2.522.36a27.257 27.257 0 0 1-.325-3.406h1.98a1.011 1.011 0 1 0 0-2.023h-1.98c.042-1.146.14-2.283.325-3.405l2.522.36a1.012 1.012 0 0 0 .286-2.002l-2.399-.343c.278-1.152.634-2.28 1.06-3.383l1.888.629a1.01 1.01 0 0 0 1.28-.637 1.011 1.011 0 0 0-.64-1.28l-1.736-.578a27.306 27.306 0 0 1 3.432-5.495c.075.092.147.187.22.28.359.455.706.92 1.034 1.394.076.112.155.224.23.337.35.524.678 1.061.99 1.606.066.116.135.229.199.345.322.585.623 1.182.9 1.786l.14.307c.283.636.546 1.282.78 1.938.016.046.03.094.047.14.481 1.376.85 2.79 1.107 4.23.016.085.032.168.045.251.115.684.203 1.375.266 2.069.01.11.016.22.025.33.058.709.093 1.42.093 2.135 0 .715-.035 1.426-.09 2.133zM19.822 30.205a1.01 1.01 0 0 0 1.278.639l1.889-.63c.425 1.104.78 2.232 1.059 3.384l-2.4.343a1.011 1.011 0 1 0 .288 2.003l2.522-.36c.184 1.122.283 2.26.325 3.406h-1.98a1.011 1.011 0 1 0 0 2.023h1.98a27.257 27.257 0 0 1-.325 3.405l-2.522-.36a1.011 1.011 0 0 0-.286 2.002l2.399.343a27.152 27.152 0 0 1-1.06 3.383l-1.888-.629a1.01 1.01 0 1 0-.64 1.919l1.736.578a27.306 27.306 0 0 1-3.432 5.495c-.075-.092-.147-.187-.22-.28-.359-.455-.706-.92-1.034-1.394l-.23-.337a27.698 27.698 0 0 1-.991-1.61c-.066-.114-.133-.226-.197-.341a27.135 27.135 0 0 1-.902-1.788l-.138-.307a27.184 27.184 0 0 1-.78-1.938l-.048-.14a27.205 27.205 0 0 1-1.107-4.233l-.045-.247a27.225 27.225 0 0 1-.267-2.07c-.01-.11-.016-.22-.025-.33A26.746 26.746 0 0 1 12.69 40c0-.715.035-1.426.09-2.133.009-.11.016-.22.026-.33a27.16 27.16 0 0 1 1.42-6.55c.015-.046.03-.093.047-.14.233-.656.496-1.302.78-1.938l.138-.307c.28-.605.579-1.202.902-1.787.064-.115.132-.228.198-.343.311-.546.64-1.083.99-1.608l.23-.337c.328-.475.674-.938 1.033-1.394.074-.093.146-.188.22-.28a27.278 27.278 0 0 1 3.433 5.495l-1.736.578a1.01 1.01 0 0 0-.638 1.279zM40 67.31c-7.834 0-14.903-3.32-19.889-8.623a29.306 29.306 0 0 0 4.026-6.387l2.393.798a1.01 1.01 0 0 0 1.28-.64 1.011 1.011 0 0 0-.64-1.28l-2.24-.746a29.295 29.295 0 0 0 1.145-3.741l2.655.38a1.012 1.012 0 0 0 .286-2.002l-2.553-.366c.197-1.216.32-2.448.364-3.692h2.047a1.011 1.011 0 1 0 0-2.022h-2.047a29.14 29.14 0 0 0-.364-3.692l2.553-.366a1.011 1.011 0 1 0-.286-2.001l-2.655.379a29.295 29.295 0 0 0-1.145-3.74l2.24-.747a1.012 1.012 0 0 0-.64-1.919l-2.393.798a29.306 29.306 0 0 0-4.026-6.387C25.097 16.01 32.166 12.69 40 12.69s14.903 3.32 19.889 8.623a29.306 29.306 0 0 0-4.026 6.387l-2.393-.798a1.011 1.011 0 1 0-.64 1.919l2.24.746a29.295 29.295 0 0 0-1.145 3.741l-2.655-.38a1.011 1.011 0 0 0-.286 2.002l2.553.366a29.516 29.516 0 0 0-.364 3.691h-2.047a1.011 1.011 0 1 0 0 2.023h2.047a29.14 29.14 0 0 0 .364 3.692l-2.553.366a1.011 1.011 0 1 0 .286 2.002l2.655-.379c.299 1.272.681 2.522 1.145 3.74l-2.24.747a1.012 1.012 0 0 0 .64 1.919l2.392-.798a29.306 29.306 0 0 0 4.026 6.387C54.903 63.99 47.834 67.31 40 67.31z"/>
</svg>
