<svg xmlns="http://www.w3.org/2000/svg" width="80" height="80" viewBox="0 0 80 80">
    <path fill="#2EB0FF" fill-rule="evenodd" d="M69.22 41.334v-1.848c0-8.658-12.86-15.44-29.277-15.44-16.416 0-29.276 6.782-29.276 15.44v1.848c.001 1.06.874 1.92 1.952 1.921v4.058c-.446.179-.837.467-1.138.836a3.55 3.55 0 0 0-.814 2.31c0 4.501 3.11 8.164 6.934 8.164h44.684a6.38 6.38 0 0 0 4.964-2.464 8.87 8.87 0 0 0 1.97-5.7 3.359 3.359 0 0 0-1.951-3.147v-4.057c1.077 0 1.95-.86 1.951-1.92zm-3.484 13.612a4.461 4.461 0 0 1-3.45 1.756H17.6c-2.747 0-4.982-2.8-4.982-6.243a1.69 1.69 0 0 1 .375-1.097.833.833 0 0 1 .635-.344h10.587l2.311 2.559a.983.983 0 0 0 1.46 0l3.98-4.408a9.923 9.923 0 0 0 7.976 3.77c3.114.054 6.072-1.344 7.976-3.77l3.98 4.408a.983.983 0 0 0 1.46 0l2.31-2.559h10.588c.538 0 1.01.673 1.01 1.44a6.972 6.972 0 0 1-1.53 4.488zm-43.254-7.849H14.57v-3.842h4.442l3.47 3.842zm-.859-3.842H32.89l-5.633 6.239-5.634-6.239zm11.69 2.424l2.189-2.424h8.882l2.19 2.424a8.218 8.218 0 0 1-6.631 3.34 8.218 8.218 0 0 1-6.63-3.34zm19.316 3.815l-5.633-6.239h11.267l-5.634 6.239zm8.246-6.239h4.44v3.842h-7.91l3.47-3.842zm-48.256-1.92v-1.85c0-6.01 7.97-11.113 18.954-12.867a4.931 4.931 0 0 1 2.515 4.151c0 .53.437.96.976.96.539 0 .976-.43.976-.96a6.723 6.723 0 0 0-1.848-4.498 53.33 53.33 0 0 1 3.485-.254c2.382.383 4.152 2.377 4.218 4.752 0 .53.437.96.976.96.539 0 .975-.43.975-.96A6.686 6.686 0 0 0 41.77 26c1.708.057 3.375.187 4.983.392a4.97 4.97 0 0 1 2.949 4.377c0 .53.437.96.976.96.539 0 .975-.43.975-.96a6.562 6.562 0 0 0-1.232-3.767c9.881 2.038 16.846 6.865 16.846 12.484v1.848H12.62z"/>
</svg>
