<svg xmlns="http://www.w3.org/2000/svg" width="80" height="80" viewBox="0 0 80 80">
    <path fill="#2EB0FF" fill-rule="evenodd" d="M39.976 13.333c-14.654 0-26.643 11.99-26.643 26.643s11.99 26.642 26.643 26.642S66.618 54.63 66.618 39.976c0-14.654-11.989-26.643-26.642-26.643zM15.553 39.976c0-6.55 2.665-12.544 6.883-16.985 2.886 4.996 4.33 10.768 4.33 16.985 0 6.105-1.555 11.99-4.33 16.985-4.218-4.44-6.883-10.435-6.883-16.985zm8.548 18.539c3.22-5.44 4.885-11.767 4.885-18.54 0-6.66-1.665-13.098-4.885-18.538 4.33-3.663 9.88-5.884 15.875-5.884 5.995 0 11.656 2.22 15.874 5.884-3.219 5.44-4.884 11.767-4.884 18.539 0 6.66 1.665 13.1 4.884 18.539-4.329 3.663-9.88 5.883-15.874 5.883-6.106 0-11.656-2.22-15.875-5.883zm33.415-1.554c-2.886-4.996-4.33-10.768-4.33-16.985 0-6.106 1.555-11.99 4.33-16.985 4.218 4.44 6.883 10.324 6.883 16.985 0 6.55-2.665 12.544-6.883 16.985z"/>
</svg>
