<svg xmlns="http://www.w3.org/2000/svg" width="80" height="80" viewBox="0 0 80 80">
    <path fill="#2EB0FF" fill-rule="evenodd" d="M69.064 35.77c.195.448.092.973-.258 1.308-2.53 2.421-7.137 7.32-7.184 7.37a1.102 1.102 0 0 1-1.523.083l-3.669-3.15v17.917c0 .447-.253.851-.648 1.04a36.82 36.82 0 0 1-15.868 3.629 36.82 36.82 0 0 1-15.868-3.628 1.153 1.153 0 0 1-.648-1.04V41.38l-3.67 3.15a1.098 1.098 0 0 1-1.522-.084c-.046-.049-4.655-4.948-7.184-7.37a1.168 1.168 0 0 1-.257-1.307c3.352-7.67 8.697-12.697 11.427-14.911.939-.76 1.96-1.404 3.044-1.921L31.1 16.14c.147-.07.308-.107.47-.107h16.688c.163 0 .323.037.47.107l5.864 2.798a15.278 15.278 0 0 1 3.044 1.92c2.73 2.215 8.076 7.242 11.428 14.912zm-22.12-17.443H32.889l1.116 1.631a18.322 18.322 0 0 0 5.769 5.404l.137.081.262-.156a18.33 18.33 0 0 0 5.704-5.39l1.069-1.57zM19.09 42.087l4.308-3.698V22.821c-2.507 2.08-7.19 6.563-10.26 13.152 1.974 1.935 4.672 4.763 5.952 6.114zM54.194 58.56V21.266l-4.928-2.342-1.556 2.286a20.602 20.602 0 0 1-6.413 6.06l-.82.49a1.095 1.095 0 0 1-1.12.003l-.7-.412a20.594 20.594 0 0 1-6.483-6.075l-1.61-2.353-4.93 2.343v37.295a34.618 34.618 0 0 0 14.28 3.112c4.888 0 9.81-1.074 14.28-3.112zm6.544-16.474c1.28-1.351 3.978-4.18 5.952-6.115-3.078-6.606-7.756-11.08-10.26-13.154v15.571l4.308 3.698zm-17.182-7.57c2.476 0 4.344 3.168 4.344 7.368s-1.868 7.367-4.344 7.367c-2.477 0-4.344-3.167-4.344-7.367s1.867-7.367 4.344-7.367zm0 12.441c.86 0 2.107-1.976 2.107-5.073 0-3.097-1.248-5.073-2.107-5.073-.86 0-2.108 1.976-2.108 5.073 0 3.097 1.248 5.073 2.108 5.073zM31.642 38.79l3.565-4.282 1.968.745v14H34.94v-10.89l-1.596 1.917-1.701-1.49z"/>
</svg>
