<svg xmlns="http://www.w3.org/2000/svg" width="80" height="80" viewBox="0 0 80 80">
    <path fill="#2EB0FF" fill-rule="evenodd" d="M39.822 14.578a2.933 2.933 0 1 1 0 5.866 2.933 2.933 0 0 1 0-5.866zm0 3.91a.978.978 0 1 0 0-1.955.978.978 0 0 0 0 1.956zm6.845 0h12.977a2.667 2.667 0 0 1 2.667 2.668v45.51a2.667 2.667 0 0 1-2.667 2.667H20a2.667 2.667 0 0 1-2.667-2.666V21.156A2.667 2.667 0 0 1 20 18.489h12.978v-.978a6.844 6.844 0 1 1 13.689 0v.978zm-11.734-.977V22.4h9.778v-4.889a4.889 4.889 0 0 0-9.778 0zm15.645 6.845H29.067v3.91h21.51v-3.91zm1.955 3.2a2.667 2.667 0 0 1-2.666 2.666h-20.09a2.667 2.667 0 0 1-2.666-2.666v-3.2H23.2v39.11h33.244v-39.11h-3.91v3.2zm7.823 39.822V20.444h-13.69V22.4H58.4v43.022H21.244V22.4h11.734v-1.956h-13.69v46.934h41.068zM31.644 40.533H51.2a.978.978 0 0 1 0 1.956H31.644a.978.978 0 0 1 0-1.956zm-3.555 3.911h23.467a.978.978 0 1 1 0 1.956H28.089a.978.978 0 1 1 0-1.956zm0 3.912h23.467a.978.978 0 1 1 0 1.955H28.089a.978.978 0 1 1 0-1.955zm0 3.91h15.644a.978.978 0 1 1 0 1.956H28.09a.978.978 0 0 1 0-1.955z"/>
</svg>
