<svg xmlns="http://www.w3.org/2000/svg" width="80" height="80" viewBox="0 0 80 80">
    <path fill="#2EB0FF" fill-rule="evenodd" d="M22.195 33.359l7.833 2.61 8.994-7.195v-7.877l-7.995-6.764a27.286 27.286 0 0 0-12.342 8.694l3.51 10.532zM16.84 22.01a29.239 29.239 0 0 1 14.157-9.927.97.97 0 0 1 .095-.036 29.534 29.534 0 0 1 17.818 0c.033.01.065.023.096.036l.058.017a29.24 29.24 0 0 1 14.12 9.936c4.023 5.186 6.15 11.398 6.15 17.963 0 .194-.006.386-.012.578l-.004.096a.98.98 0 0 1 .014.197 29.237 29.237 0 0 1-4.715 15.112.978.978 0 0 1-.102.201c-4.09 6.17-10.282 10.536-17.436 12.296a.951.951 0 0 1-.156.025c-2.27.55-4.598.828-6.922.828a29.425 29.425 0 0 1-7.027-.853c-7.154-1.76-13.346-6.127-17.436-12.296a29.232 29.232 0 0 1-4.85-15.37l-.008-.232c-.005-.194-.012-.387-.012-.582 0-6.566 2.126-12.777 6.15-17.963a.981.981 0 0 1 .022-.026zm-4.197 16.925l7.619-5.194-2.996-8.99a27.041 27.041 0 0 0-4.623 14.184zm37.332-2.965l7.831-2.61 3.51-10.532a27.271 27.271 0 0 0-12.342-8.695l-7.994 6.764-.001 7.876 8.996 7.197zM34.636 49.778l-4.306 6.028 3.632 10.898c3.97.895 8.107.895 12.076 0l3.632-10.896-4.307-6.03H34.636zm10.526-1.956l3.473-10.417-8.022-6.418-.613-.49-8.634 6.906 3.473 10.42h10.323zm6.117 6.844h11.859a27.263 27.263 0 0 0 4.22-13.324l-6.86-4.716-2.064-1.407-7.862 2.621-3.6 10.797 4.307 6.029zM31.696 66.09l-3.157-9.469H18.25a27.295 27.295 0 0 0 13.447 9.469zM16.883 54.666h11.859l4.306-6.03-3.6-10.796-5.557-1.853-2.316-.772-8.912 6.127a27.271 27.271 0 0 0 4.22 13.324zm44.64-19.708l5.834 3.978a27.027 27.027 0 0 0-4.622-14.182l-2.993 8.98 1.78 1.224zM39.998 19.151l6.603-5.723a27.549 27.549 0 0 0-13.206 0L40 19.15zm8.356 46.94a27.29 27.29 0 0 0 13.447-9.469h-10.29l-3.157 9.47z"/>
</svg>
