<svg xmlns="http://www.w3.org/2000/svg" width="80" height="80" viewBox="0 0 80 80">
    <path fill="#2EB0FF" fill-rule="evenodd" d="M69.333 40c0-.518-.014-1.032-.04-1.544l-.004-.057a29.128 29.128 0 0 0-1.898-8.88l-.015-.038c-.17-.44-.35-.878-.541-1.308l-.091-.2c-.166-.368-.338-.731-.518-1.09a26.835 26.835 0 0 0-.971-1.778c-.123-.21-.25-.417-.38-.622-.149-.241-.302-.479-.459-.715-.086-.129-.174-.256-.262-.384a30.348 30.348 0 0 0-.629-.884l-.095-.124a29.26 29.26 0 0 0-3.763-4.137l-.387-.35-.03.007a29.213 29.213 0 0 0-15.683-7.005l.05-.064-1.926-.109h-.01A29.79 29.79 0 0 0 40 10.667c-16.175 0-29.333 13.158-29.333 29.333 0 .513.014 1.023.04 1.53v.004l.112 2.203.083-.078a29.223 29.223 0 0 0 6.994 15.594l-.007.03.35.387a29.355 29.355 0 0 0 4.135 3.761l.126.096c.29.216.585.424.882.628.128.088.256.178.386.263a30.003 30.003 0 0 0 1.883 1.153c.282.16.568.314.857.464a29.823 29.823 0 0 0 2.973 1.342l.037.015a29.122 29.122 0 0 0 8.88 1.898c.019 0 .038.003.057.004.513.025 1.027.04 1.545.04 6.073 0 11.72-1.856 16.406-5.029l.017-.008.1-.06c.236-.162.461-.34.694-.508.15-.11.3-.217.448-.33.291-.219.576-.444.86-.675.12-.099.24-.2.359-.301a29.45 29.45 0 0 0 2.657-2.539c.09-.1.183-.197.273-.297.263-.293.52-.588.772-.89.063-.077.124-.156.187-.234.5-.615.975-1.25 1.424-1.904.046-.068.096-.134.142-.202.207-.308.404-.62.6-.936a28.593 28.593 0 0 0 .816-1.393c.094-.172.18-.348.272-.522.15-.287.307-.568.448-.86l.053-.137.002-.006A29.184 29.184 0 0 0 69.333 40zm-2.351 4.231c-.443-2.37-1.359-4.647-2.763-6.637-2.96-4.2-7.524-6.635-12.852-6.855l-.055-.002-.055.004c-4.118.277-7.378-.922-9.402-3.38a51.282 51.282 0 0 1 16.82-7.262c.84.789 1.635 1.626 2.371 2.515l.046.056c.249.303.49.611.727.925.052.067.101.136.152.205.198.269.392.541.581.817a31.984 31.984 0 0 1 .692 1.063c.133.217.261.435.388.654.088.15.176.3.26.453.177.317.344.64.507.963.032.063.065.124.096.187a27.332 27.332 0 0 1 2.487 16.294zm-2.784 8.408c-.077.146-.15.295-.23.44a27.553 27.553 0 0 1-.751 1.28c-.186.3-.374.599-.572.891l-.05.073a27.469 27.469 0 0 1-1.411 1.89c-.052.064-.102.13-.155.193-.238.286-.483.567-.731.844l-.227.248-.024.027-3.904-4.748a224.232 224.232 0 0 0-20.391-21.663 51.953 51.953 0 0 1 4.422-3.584c2.417 3.055 6.305 4.552 11.163 4.233 4.662.208 8.648 2.336 11.23 5.997 2.635 3.74 3.401 8.609 2.058 13.046-.136.28-.282.556-.427.833zm-6.927 8.498a26.712 26.712 0 0 1-1.193.919c-.236.173-.474.344-.715.508-4.631 2.385-10.047 2.28-14.513-.294-4.297-2.476-6.89-6.828-7.118-11.946.4-6.134-2.032-9.482-4.375-11.273a51.757 51.757 0 0 1 4.916-5.55A222.098 222.098 0 0 1 54.579 55.06l4.03 4.903a27.35 27.35 0 0 1-1.057.939l-.28.236zM27.297 37.798c-4.497-2.106-10.322-1.408-14.591 1.573.003-.134.005-.266.01-.4.008-.22.018-.44.031-.66a28.217 28.217 0 0 1 .553-4.04c.05-.234.105-.464.16-.696.05-.203.099-.406.152-.607.062-.23.129-.458.195-.686.059-.198.117-.395.18-.591.072-.227.15-.453.229-.676.067-.192.134-.385.205-.576.084-.223.173-.445.263-.665.076-.186.15-.373.23-.558.095-.219.195-.435.295-.652.084-.181.167-.363.255-.542.105-.215.217-.427.328-.638.092-.175.182-.351.277-.524.116-.212.239-.42.36-.626.098-.168.195-.337.298-.503.126-.206.26-.409.391-.611.105-.162.21-.325.318-.485.136-.2.279-.395.42-.59.114-.156.224-.314.34-.468.146-.193.298-.381.448-.57.12-.149.238-.302.36-.45.156-.186.318-.368.479-.551.125-.143.248-.288.376-.427.077-.084.157-.164.235-.246l2.723 2.204a220.752 220.752 0 0 1 9.968 8.595 53.95 53.95 0 0 0-5.143 5.838c-.118-.06-.235-.12-.345-.172zm-.87 1.828a53.323 53.323 0 0 0-7.946 17.16 27.165 27.165 0 0 1-5.718-14.88c3.687-3.247 9.468-4.239 13.665-2.28zm-4.163-20.369c.141-.12.279-.243.421-.36.193-.16.394-.311.591-.465.145-.112.286-.229.433-.338.208-.156.423-.302.635-.452.143-.1.282-.203.426-.301.23-.155.464-.3.699-.449.133-.084.265-.173.4-.254.257-.157.521-.304.784-.453.118-.065.232-.136.35-.2.344-.187.693-.364 1.045-.536.042-.02.081-.042.123-.063.394-.19.794-.37 1.198-.542.129-.054.261-.102.39-.155.278-.112.555-.226.837-.33.168-.061.341-.115.51-.173.249-.086.496-.174.746-.253.182-.057.369-.106.553-.159.242-.07.483-.144.729-.207.195-.051.394-.093.592-.14.237-.056.474-.115.715-.165.203-.042.41-.076.615-.113.238-.044.475-.091.715-.129.207-.032.419-.056.628-.084.24-.032.48-.066.724-.092.21-.022.424-.035.637-.053.244-.02.49-.043.736-.056.213-.012.429-.015.643-.021.207-.006.414-.014.621-.016-2.586 4.385-2.914 9.956-.695 14.14a53.998 53.998 0 0 0-4.807 3.902 223.208 223.208 0 0 0-10.169-8.774l-2.55-2.064c.055-.051.107-.104.162-.153.184-.169.374-.33.563-.492zm18.483 6.413c-1.896-3.808-1.32-9.098 1.377-12.89a27.154 27.154 0 0 1 14.663 5.701 53.307 53.307 0 0 0-16.04 7.19zM27.942 64.495c-.069-.034-.137-.07-.204-.105a27.12 27.12 0 0 1-.946-.497c-.158-.088-.314-.18-.47-.27a27.011 27.011 0 0 1-.637-.378c-.228-.14-.453-.286-.676-.434a26.172 26.172 0 0 1-1.216-.847 26.303 26.303 0 0 1-1.128-.877l-.048-.039a27.521 27.521 0 0 1-2.518-2.374 51.295 51.295 0 0 1 8.045-17.973c2.586 2.006 3.854 5.307 3.567 9.544l-.004.055.002.056c.242 5.848 3.205 10.83 8.131 13.668a17.02 17.02 0 0 0 7.584 2.253A27.223 27.223 0 0 1 40 67.31c-4.219 0-8.342-.985-12.058-2.815z"/>
</svg>
