<svg xmlns="http://www.w3.org/2000/svg" width="80" height="80" viewBox="0 0 80 80">
    <path fill="#2EB0FF" fill-rule="evenodd" d="M56.43 19.178c2.664 0 4.82 2.125 4.833 4.735v40.685c0 2.61-2.17 4.735-4.833 4.735H23.57c-2.664 0-4.833-2.125-4.833-4.735V23.924c0-2.61 2.17-4.734 4.833-4.734h6.765c0-2.61 2.169-4.735 4.833-4.735h.106c.448-2.16 2.392-3.788 4.726-3.788s4.278 1.628 4.738 3.776h.094c2.664 0 4.833 2.125 4.833 4.735h6.765zm-24.15 0v2.852h15.452v-2.84c0-1.571-1.297-2.841-2.9-2.841h-1.92v-.947c0-1.571-1.297-2.841-2.9-2.841s-2.9 1.27-2.9 2.84v.936H35.18c-1.603 0-2.9 1.27-2.9 2.841zm24.15 48.261c1.603 0 2.9-1.27 2.9-2.84h-.012V23.912c0-1.57-1.297-2.841-2.9-2.841h-6.765v2.84H30.335v-2.84H23.57c-1.603 0-2.9 1.27-2.9 2.84v40.686c0 1.571 1.297 2.841 2.9 2.841h32.86zm-25.2-34.541l2.7 2.644c.377.37.377.97 0 1.34a.974.974 0 0 1-.684.277.974.974 0 0 1-.683-.277l-2.7-2.645-2.698 2.645a.974.974 0 0 1-.684.277.974.974 0 0 1-.684-.277.92.92 0 0 1 0-1.328l2.7-2.645-2.7-2.644a.934.934 0 0 1 0-1.34.982.982 0 0 1 1.368 0l2.699 2.645 2.699-2.657a.982.982 0 0 1 1.367 0c.377.37.377.97 0 1.34l-2.7 2.645zm18.14 5.462c.377.37.377.97 0 1.34l-3.96 3.88a.974.974 0 0 1-.684.277.974.974 0 0 1-.683-.277.934.934 0 0 1 0-1.34l2.18-2.136c-10.537 1.028-18.787 9.758-18.787 20.348 0 .52-.436.947-.967.947a.961.961 0 0 1-.966-.947c0-11.71 9.24-21.341 20.956-22.265l-2.346-2.298a.934.934 0 0 1 0-1.34.982.982 0 0 1 1.368 0l3.89 3.811zm-.683 12.045c2.663 0 4.832 2.125 4.832 4.735 0 2.61-2.169 4.735-4.832 4.735-2.664 0-4.833-2.125-4.833-4.735 0-2.61 2.169-4.735 4.833-4.735zm0 7.576c1.603 0 2.899-1.27 2.899-2.84 0-1.571-1.296-2.842-2.9-2.842-1.602 0-2.899 1.27-2.899 2.841 0 1.57 1.297 2.841 2.9 2.841zm-8.707-39.75h.04a.947.947 0 0 1 0 1.894h-.04a.947.947 0 1 1 0-1.894zm-3.865 0h.039a.947.947 0 0 1 0 1.894h-.04a.947.947 0 0 1 0-1.894zm7.731 0h.04a.947.947 0 1 1 0 1.894h-.04a.947.947 0 1 1 0-1.894z"/>
</svg>
