<?xml version="1.0" encoding="UTF-8"?>
<svg width="62px" height="62px" viewBox="0 0 62 62" version="1.1" xmlns="http://www.w3.org/2000/svg" xmlns:xlink="http://www.w3.org/1999/xlink">
    <defs>
        <rect id="path-1" x="0" y="0" width="62" height="62"></rect>
    </defs>
    <g id="Symbols" stroke="none" stroke-width="1" fill="none" fill-rule="evenodd">
        <g id="Player_empty">
            <g id="Player">
                <g id="Rectangle-11">
                    <use fill="#8C929A" fill-rule="evenodd" xlink:href="#path-1"></use>
                </g>
            </g>
            <g id="Group" transform="translate(18.000000, 22.000000)" fill="#393939" fill-rule="nonzero">
                <path d="M16.840667,8.69279393 C16.840667,8.65297092 16.072351,4.57395702 19.4017204,3.76611884 C19.5579734,3.72609662 19.7184901,3.70508481 19.8797837,3.70353982 C20.7658488,3.699946 21.5074135,4.3745056 21.5871527,5.25663717 C21.7635808,6.39443742 21.4619456,8.04424779 16.8975793,8.73261694 L16.8975793,8.73261694 C16.8766914,8.73013554 16.8602231,8.71367367 16.8577407,8.69279393 M20.0960505,18 C20.7454425,17.9969189 21.3938617,17.9493995 22.0367598,17.857775 C23.2315866,17.6848008 24.4073348,17.3990744 25.5482486,17.0044248 C27.2556175,16.3786346 26.0206207,13.0221239 24.2392657,13.488622 C23.5934719,13.6874442 22.9331989,13.8358048 22.264409,13.9323641 C19.9480785,14.2623262 18.3317692,13.579646 17.7114252,11.9810367 L17.7398814,11.9184576 C26.128754,9.75094817 26.697877,6.41719343 26.276726,3.75474083 C25.8897224,1.40518331 24.0628376,0 21.3822684,0 C14.2170101,0 11.5762795,4.52275601 12.0543428,9.95575221 C12.7998939,16.2534766 16.8691232,18 20.1472715,18" id="Shape"></path>
                <path d="M0.504431728,17.6013032 L0.668665314,13.8078202 C1.84205822,14.2389803 3.0845434,14.4516104 4.33459357,14.4351814 C5.78336842,14.4410446 6.95646546,13.7785043 6.95646546,12.4768765 C6.95646546,9.85016801 0,11.3042388 0,5.65212506 C0,2.25733893 2.56908252,-0.00585182326 7.32599103,1.13652227e-05 C8.38435966,0.0250107108 9.44018677,0.115083121 10.4874876,0.269718035 L10.3525814,3.86385257 C9.31995523,3.58020705 8.25593514,3.42657544 7.18521938,3.40652387 C5.34932251,3.40652387 4.61027137,4.12769606 4.61027137,5.16548042 C4.61027137,7.65733552 11.6488536,6.62541435 11.6488536,11.9433263 C11.6488536,15.57264 8.71611102,18 3.88881669,18 C2.76521119,17.9912797 1.62251261,17.8575911 0.504431728,17.6013032 Z" id="Shape"></path>
            </g>
        </g>
    </g>
</svg>
